<?xml version="1.0" encoding="UTF-8" standalone="no"?>
<!DOCTYPE svg PUBLIC "-//W3C//DTD SVG 1.1//EN"
 "http://www.w3.org/Graphics/SVG/1.1/DTD/svg11.dtd">
<!-- Generated by graphviz version 2.43.0 (0)
 -->
<!-- Title: Game_Complete_State Pages: 1 -->
<svg width="168pt" height="546pt"
 viewBox="0.00 0.00 168.00 546.00" xmlns="http://www.w3.org/2000/svg" xmlns:xlink="http://www.w3.org/1999/xlink">
<g id="graph0" class="graph" transform="scale(1 1) rotate(0) translate(4 542)">
<title>Game_Complete_State</title>
<polygon fill="white" stroke="transparent" points="-4,4 -4,-542 164,-542 164,4 -4,4"/>
<!-- Node1 -->
<g id="node1" class="node">
<title>Node1</title>
<g id="a_node1"><a xlink:title=" ">
<polygon fill="#bfbfbf" stroke="black" points="6,-0.5 6,-57.5 154,-57.5 154,-0.5 6,-0.5"/>
<text text-anchor="middle" x="80" y="-45.5" font-family="Helvetica,sans-Serif" font-size="10.00">Game_Complete_State</text>
<polyline fill="none" stroke="black" points="6,-38.5 154,-38.5 "/>
<text text-anchor="middle" x="80" y="-26.5" font-family="Helvetica,sans-Serif" font-size="10.00"> </text>
<polyline fill="none" stroke="black" points="6,-19.5 154,-19.5 "/>
<text text-anchor="start" x="14" y="-7.5" font-family="Helvetica,sans-Serif" font-size="10.00">+ Game_Complete_State()</text>
</a>
</g>
</g>
<!-- Node2 -->
<g id="node2" class="node">
<title>Node2</title>
<g id="a_node2"><a xlink:href="classGame__Over__State.html" target="_top" xlink:title=" ">
<polygon fill="white" stroke="black" points="18,-94.5 18,-151.5 142,-151.5 142,-94.5 18,-94.5"/>
<text text-anchor="middle" x="80" y="-139.5" font-family="Helvetica,sans-Serif" font-size="10.00">Game_Over_State</text>
<polyline fill="none" stroke="black" points="18,-132.5 142,-132.5 "/>
<text text-anchor="middle" x="80" y="-120.5" font-family="Helvetica,sans-Serif" font-size="10.00"> </text>
<polyline fill="none" stroke="black" points="18,-113.5 142,-113.5 "/>
<text text-anchor="start" x="26" y="-101.5" font-family="Helvetica,sans-Serif" font-size="10.00">+ Game_Over_State()</text>
</a>
</g>
</g>
<!-- Node2&#45;&gt;Node1 -->
<g id="edge1" class="edge">
<title>Node2&#45;&gt;Node1</title>
<path fill="none" stroke="midnightblue" d="M80,-84.21C80,-75.29 80,-65.95 80,-57.58"/>
<polygon fill="none" stroke="midnightblue" points="76.5,-84.4 80,-94.4 83.5,-84.4 76.5,-84.4"/>
</g>
<!-- Node3 -->
<g id="node3" class="node">
<title>Node3</title>
<g id="a_node3"><a xlink:href="classMenu__State.html" target="_top" xlink:title=" ">
<polygon fill="white" stroke="black" points="0,-188.5 0,-410.5 160,-410.5 160,-188.5 0,-188.5"/>
<text text-anchor="middle" x="80" y="-398.5" font-family="Helvetica,sans-Serif" font-size="10.00">Menu_State</text>
<polyline fill="none" stroke="black" points="0,-391.5 160,-391.5 "/>
<text text-anchor="start" x="8" y="-379.5" font-family="Helvetica,sans-Serif" font-size="10.00"># sf::Sprite background</text>
<text text-anchor="start" x="8" y="-368.5" font-family="Helvetica,sans-Serif" font-size="10.00"># sf::Text new_game</text>
<text text-anchor="start" x="8" y="-357.5" font-family="Helvetica,sans-Serif" font-size="10.00"># sf::Text exit</text>
<text text-anchor="start" x="8" y="-346.5" font-family="Helvetica,sans-Serif" font-size="10.00"># sf::Font font</text>
<text text-anchor="start" x="8" y="-335.5" font-family="Helvetica,sans-Serif" font-size="10.00"># Menu_Choice choice</text>
<polyline fill="none" stroke="black" points="0,-328.5 160,-328.5 "/>
<text text-anchor="start" x="8" y="-316.5" font-family="Helvetica,sans-Serif" font-size="10.00">+ Menu_State()</text>
<text text-anchor="start" x="8" y="-305.5" font-family="Helvetica,sans-Serif" font-size="10.00">+ State_Action update</text>
<text text-anchor="start" x="8" y="-294.5" font-family="Helvetica,sans-Serif" font-size="10.00">(sf::RenderWindow &amp;window)</text>
<text text-anchor="start" x="8" y="-283.5" font-family="Helvetica,sans-Serif" font-size="10.00"> override</text>
<text text-anchor="start" x="8" y="-272.5" font-family="Helvetica,sans-Serif" font-size="10.00"># void init_text()</text>
<text text-anchor="start" x="8" y="-261.5" font-family="Helvetica,sans-Serif" font-size="10.00"># virtual State_Action</text>
<text text-anchor="start" x="8" y="-250.5" font-family="Helvetica,sans-Serif" font-size="10.00"> execute_command(Menu</text>
<text text-anchor="start" x="8" y="-239.5" font-family="Helvetica,sans-Serif" font-size="10.00">_Choice choice) const</text>
<text text-anchor="start" x="8" y="-228.5" font-family="Helvetica,sans-Serif" font-size="10.00"># sf::Text create_text</text>
<text text-anchor="start" x="8" y="-217.5" font-family="Helvetica,sans-Serif" font-size="10.00">(sf::Font const &amp;font,</text>
<text text-anchor="start" x="8" y="-206.5" font-family="Helvetica,sans-Serif" font-size="10.00"> std::string const &amp;text,</text>
<text text-anchor="start" x="8" y="-195.5" font-family="Helvetica,sans-Serif" font-size="10.00"> sf::Vector2f const &amp;position)</text>
</a>
</g>
</g>
<!-- Node3&#45;&gt;Node2 -->
<g id="edge2" class="edge">
<title>Node3&#45;&gt;Node2</title>
<path fill="none" stroke="midnightblue" d="M80,-178.24C80,-168.61 80,-159.6 80,-151.81"/>
<polygon fill="none" stroke="midnightblue" points="76.5,-178.48 80,-188.48 83.5,-178.48 76.5,-178.48"/>
</g>
<!-- Node4 -->
<g id="node4" class="node">
<title>Node4</title>
<g id="a_node4"><a xlink:href="classState.html" target="_top" xlink:title=" ">
<polygon fill="white" stroke="black" points="7,-447.5 7,-537.5 153,-537.5 153,-447.5 7,-447.5"/>
<text text-anchor="middle" x="80" y="-525.5" font-family="Helvetica,sans-Serif" font-size="10.00">State</text>
<polyline fill="none" stroke="black" points="7,-518.5 153,-518.5 "/>
<text text-anchor="middle" x="80" y="-506.5" font-family="Helvetica,sans-Serif" font-size="10.00"> </text>
<polyline fill="none" stroke="black" points="7,-499.5 153,-499.5 "/>
<text text-anchor="start" x="15" y="-487.5" font-family="Helvetica,sans-Serif" font-size="10.00">+ virtual ~State()=default</text>
<text text-anchor="start" x="15" y="-476.5" font-family="Helvetica,sans-Serif" font-size="10.00">+ virtual State_Action</text>
<text text-anchor="start" x="15" y="-465.5" font-family="Helvetica,sans-Serif" font-size="10.00"> update(sf::RenderWindow</text>
<text text-anchor="start" x="15" y="-454.5" font-family="Helvetica,sans-Serif" font-size="10.00"> &amp;window)=0</text>
</a>
</g>
</g>
<!-- Node4&#45;&gt;Node3 -->
<g id="edge3" class="edge">
<title>Node4&#45;&gt;Node3</title>
<path fill="none" stroke="midnightblue" d="M80,-436.96C80,-428.65 80,-419.82 80,-410.81"/>
<polygon fill="none" stroke="midnightblue" points="76.5,-437.2 80,-447.2 83.5,-437.2 76.5,-437.2"/>
</g>
</g>
</svg>
