<?xml version="1.0" encoding="UTF-8" standalone="no"?>
<!DOCTYPE svg PUBLIC "-//W3C//DTD SVG 1.1//EN"
 "http://www.w3.org/Graphics/SVG/1.1/DTD/svg11.dtd">
<!-- Generated by graphviz version 2.43.0 (0)
 -->
<!-- Title: State Pages: 1 -->
<!--zoomable 546 -->
<svg id="main" version="1.1" xmlns="http://www.w3.org/2000/svg" xmlns:xlink="http://www.w3.org/1999/xlink" xml:space="preserve" onload="init(evt)">
<style type="text/css"><![CDATA[
.edge:hover path { stroke: red; }
.edge:hover polygon { stroke: red; fill: red; }
]]></style>
<script type="text/javascript"><![CDATA[
var edges = document.getElementsByTagName('g');
if (edges && edges.length) {
  for (var i=0;i<edges.length;i++) {
    if (edges[i].id.substr(0,4)=='edge') {
      edges[i].setAttribute('class','edge');
    }
  }
}
]]></script>
        <defs>
                <circle id="rim" cx="0" cy="0" r="7"/>
                <circle id="rim2" cx="0" cy="0" r="3.5"/>
                <g id="zoomPlus">
                        <use xlink:href="#rim" fill="#404040">
                                <set attributeName="fill" to="#808080" begin="zoomplus.mouseover" end="zoomplus.mouseout"/>
                        </use>
                        <path d="M-4,0h8M0,-4v8" fill="none" stroke="white" stroke-width="1.5" pointer-events="none"/>
                </g>
                <g id="zoomMin">
                        <use xlink:href="#rim" fill="#404040">
                                <set attributeName="fill" to="#808080" begin="zoomminus.mouseover" end="zoomminus.mouseout"/>
                        </use>
                        <path d="M-4,0h8" fill="none" stroke="white" stroke-width="1.5" pointer-events="none"/>
                </g>
                <g id="dirArrow">
                        <path fill="none" stroke="white" stroke-width="1.5" d="M0,-3.0v7 M-2.5,-0.5L0,-3.0L2.5,-0.5"/>
                </g>
               <g id="resetDef">
                       <use xlink:href="#rim2" fill="#404040">
                               <set attributeName="fill" to="#808080" begin="reset.mouseover" end="reset.mouseout"/>
                       </use>
               </g>
        </defs>

<script type="text/javascript">
var viewWidth = 582;
var viewHeight = 546;
var sectionId = 'dynsection-0';
</script>
<script xlink:href="svgpan.js"/>
<svg id="graph" class="graph">
<g id="viewport">
<title>State</title>
<polygon fill="white" stroke="transparent" points="-4,4 -4,-542 578,-542 578,4 -4,4"/>
<!-- Node1 -->
<g id="node1" class="node">
<title>Node1</title>
<g id="a_node1"><a xlink:title=" ">
<polygon fill="#bfbfbf" stroke="black" points="243,-447.5 243,-537.5 389,-537.5 389,-447.5 243,-447.5"/>
<text text-anchor="middle" x="316" y="-525.5" font-family="Helvetica,sans-Serif" font-size="10.00">State</text>
<polyline fill="none" stroke="black" points="243,-518.5 389,-518.5 "/>
<text text-anchor="middle" x="316" y="-506.5" font-family="Helvetica,sans-Serif" font-size="10.00"> </text>
<polyline fill="none" stroke="black" points="243,-499.5 389,-499.5 "/>
<text text-anchor="start" x="251" y="-487.5" font-family="Helvetica,sans-Serif" font-size="10.00">+ virtual ~State()=default</text>
<text text-anchor="start" x="251" y="-476.5" font-family="Helvetica,sans-Serif" font-size="10.00">+ virtual State_Action</text>
<text text-anchor="start" x="251" y="-465.5" font-family="Helvetica,sans-Serif" font-size="10.00"> update(sf::RenderWindow</text>
<text text-anchor="start" x="251" y="-454.5" font-family="Helvetica,sans-Serif" font-size="10.00"> &amp;window)=0</text>
</a>
</g>
</g>
<!-- Node2 -->
<g id="node2" class="node">
<title>Node2</title>
<g id="a_node2"><a xlink:href="classMenu__State.html" target="_top" xlink:title=" ">
<polygon fill="white" stroke="black" points="58,-188.5 58,-410.5 218,-410.5 218,-188.5 58,-188.5"/>
<text text-anchor="middle" x="138" y="-398.5" font-family="Helvetica,sans-Serif" font-size="10.00">Menu_State</text>
<polyline fill="none" stroke="black" points="58,-391.5 218,-391.5 "/>
<text text-anchor="start" x="66" y="-379.5" font-family="Helvetica,sans-Serif" font-size="10.00"># sf::Sprite background</text>
<text text-anchor="start" x="66" y="-368.5" font-family="Helvetica,sans-Serif" font-size="10.00"># sf::Text new_game</text>
<text text-anchor="start" x="66" y="-357.5" font-family="Helvetica,sans-Serif" font-size="10.00"># sf::Text exit</text>
<text text-anchor="start" x="66" y="-346.5" font-family="Helvetica,sans-Serif" font-size="10.00"># sf::Font font</text>
<text text-anchor="start" x="66" y="-335.5" font-family="Helvetica,sans-Serif" font-size="10.00"># Menu_Choice choice</text>
<polyline fill="none" stroke="black" points="58,-328.5 218,-328.5 "/>
<text text-anchor="start" x="66" y="-316.5" font-family="Helvetica,sans-Serif" font-size="10.00">+ Menu_State()</text>
<text text-anchor="start" x="66" y="-305.5" font-family="Helvetica,sans-Serif" font-size="10.00">+ State_Action update</text>
<text text-anchor="start" x="66" y="-294.5" font-family="Helvetica,sans-Serif" font-size="10.00">(sf::RenderWindow &amp;window)</text>
<text text-anchor="start" x="66" y="-283.5" font-family="Helvetica,sans-Serif" font-size="10.00"> override</text>
<text text-anchor="start" x="66" y="-272.5" font-family="Helvetica,sans-Serif" font-size="10.00"># void init_text()</text>
<text text-anchor="start" x="66" y="-261.5" font-family="Helvetica,sans-Serif" font-size="10.00"># virtual State_Action</text>
<text text-anchor="start" x="66" y="-250.5" font-family="Helvetica,sans-Serif" font-size="10.00"> execute_command(Menu</text>
<text text-anchor="start" x="66" y="-239.5" font-family="Helvetica,sans-Serif" font-size="10.00">_Choice choice) const</text>
<text text-anchor="start" x="66" y="-228.5" font-family="Helvetica,sans-Serif" font-size="10.00"># sf::Text create_text</text>
<text text-anchor="start" x="66" y="-217.5" font-family="Helvetica,sans-Serif" font-size="10.00">(sf::Font const &amp;font,</text>
<text text-anchor="start" x="66" y="-206.5" font-family="Helvetica,sans-Serif" font-size="10.00"> std::string const &amp;text,</text>
<text text-anchor="start" x="66" y="-195.5" font-family="Helvetica,sans-Serif" font-size="10.00"> sf::Vector2f const &amp;position)</text>
</a>
</g>
</g>
<!-- Node1&#45;&gt;Node2 -->
<g id="edge1" class="edge">
<title>Node1&#45;&gt;Node2</title>
<path fill="none" stroke="midnightblue" d="M256.91,-440.45C246.67,-430.94 236.32,-420.87 227,-411 224.04,-407.87 221.07,-404.64 218.1,-401.36"/>
<polygon fill="none" stroke="midnightblue" points="254.6,-443.09 264.33,-447.28 259.34,-437.93 254.6,-443.09"/>
</g>
<!-- Node6 -->
<g id="node6" class="node">
<title>Node6</title>
<g id="a_node6"><a xlink:href="classPlay__State.html" target="_top" xlink:title=" ">
<polygon fill="white" stroke="black" points="236,-249 236,-350 396,-350 396,-249 236,-249"/>
<text text-anchor="middle" x="316" y="-338" font-family="Helvetica,sans-Serif" font-size="10.00">Play_State</text>
<polyline fill="none" stroke="black" points="236,-331 396,-331 "/>
<text text-anchor="middle" x="316" y="-319" font-family="Helvetica,sans-Serif" font-size="10.00"> </text>
<polyline fill="none" stroke="black" points="236,-312 396,-312 "/>
<text text-anchor="start" x="244" y="-300" font-family="Helvetica,sans-Serif" font-size="10.00">+ Play_State(std::string</text>
<text text-anchor="start" x="244" y="-289" font-family="Helvetica,sans-Serif" font-size="10.00"> const &amp;level, int lvl)</text>
<text text-anchor="start" x="244" y="-278" font-family="Helvetica,sans-Serif" font-size="10.00">+ State_Action update</text>
<text text-anchor="start" x="244" y="-267" font-family="Helvetica,sans-Serif" font-size="10.00">(sf::RenderWindow &amp;window)</text>
<text text-anchor="start" x="244" y="-256" font-family="Helvetica,sans-Serif" font-size="10.00"> override</text>
</a>
</g>
</g>
<!-- Node1&#45;&gt;Node6 -->
<g id="edge5" class="edge">
<title>Node1&#45;&gt;Node6</title>
<path fill="none" stroke="midnightblue" d="M316,-437.03C316,-409.73 316,-376.9 316,-350.28"/>
<polygon fill="none" stroke="midnightblue" points="312.5,-437.2 316,-447.2 319.5,-437.2 312.5,-437.2"/>
</g>
<!-- Node7 -->
<g id="node7" class="node">
<title>Node7</title>
<g id="a_node7"><a xlink:href="classProlog__State.html" target="_top" xlink:title=" ">
<polygon fill="white" stroke="black" points="414,-249 414,-350 574,-350 574,-249 414,-249"/>
<text text-anchor="middle" x="494" y="-338" font-family="Helvetica,sans-Serif" font-size="10.00">Prolog_State</text>
<polyline fill="none" stroke="black" points="414,-331 574,-331 "/>
<text text-anchor="middle" x="494" y="-319" font-family="Helvetica,sans-Serif" font-size="10.00"> </text>
<polyline fill="none" stroke="black" points="414,-312 574,-312 "/>
<text text-anchor="start" x="422" y="-300" font-family="Helvetica,sans-Serif" font-size="10.00">+ Prolog_State(std::</text>
<text text-anchor="start" x="422" y="-289" font-family="Helvetica,sans-Serif" font-size="10.00">string const &amp;s)</text>
<text text-anchor="start" x="422" y="-278" font-family="Helvetica,sans-Serif" font-size="10.00">+ State_Action update</text>
<text text-anchor="start" x="422" y="-267" font-family="Helvetica,sans-Serif" font-size="10.00">(sf::RenderWindow &amp;window)</text>
<text text-anchor="start" x="422" y="-256" font-family="Helvetica,sans-Serif" font-size="10.00"> override</text>
</a>
</g>
</g>
<!-- Node1&#45;&gt;Node7 -->
<g id="edge6" class="edge">
<title>Node1&#45;&gt;Node7</title>
<path fill="none" stroke="midnightblue" d="M375.09,-440.45C385.33,-430.94 395.68,-420.87 405,-411 423.01,-391.93 441.44,-369.6 456.82,-350.03"/>
<polygon fill="none" stroke="midnightblue" points="372.66,-437.93 367.67,-447.28 377.4,-443.09 372.66,-437.93"/>
</g>
<!-- Node3 -->
<g id="node3" class="node">
<title>Node3</title>
<g id="a_node3"><a xlink:href="classGame__Over__State.html" target="_top" xlink:title=" ">
<polygon fill="white" stroke="black" points="12,-94.5 12,-151.5 136,-151.5 136,-94.5 12,-94.5"/>
<text text-anchor="middle" x="74" y="-139.5" font-family="Helvetica,sans-Serif" font-size="10.00">Game_Over_State</text>
<polyline fill="none" stroke="black" points="12,-132.5 136,-132.5 "/>
<text text-anchor="middle" x="74" y="-120.5" font-family="Helvetica,sans-Serif" font-size="10.00"> </text>
<polyline fill="none" stroke="black" points="12,-113.5 136,-113.5 "/>
<text text-anchor="start" x="20" y="-101.5" font-family="Helvetica,sans-Serif" font-size="10.00">+ Game_Over_State()</text>
</a>
</g>
</g>
<!-- Node2&#45;&gt;Node3 -->
<g id="edge2" class="edge">
<title>Node2&#45;&gt;Node3</title>
<path fill="none" stroke="midnightblue" d="M94.12,-178.85C90.5,-168.98 87.12,-159.77 84.2,-151.81"/>
<polygon fill="none" stroke="midnightblue" points="90.92,-180.3 97.65,-188.48 97.49,-177.89 90.92,-180.3"/>
</g>
<!-- Node5 -->
<g id="node5" class="node">
<title>Node5</title>
<g id="a_node5"><a xlink:href="classPause__State.html" target="_top" xlink:title=" ">
<polygon fill="white" stroke="black" points="154.5,-94.5 154.5,-151.5 249.5,-151.5 249.5,-94.5 154.5,-94.5"/>
<text text-anchor="middle" x="202" y="-139.5" font-family="Helvetica,sans-Serif" font-size="10.00">Pause_State</text>
<polyline fill="none" stroke="black" points="154.5,-132.5 249.5,-132.5 "/>
<text text-anchor="middle" x="202" y="-120.5" font-family="Helvetica,sans-Serif" font-size="10.00"> </text>
<polyline fill="none" stroke="black" points="154.5,-113.5 249.5,-113.5 "/>
<text text-anchor="start" x="162.5" y="-101.5" font-family="Helvetica,sans-Serif" font-size="10.00">+ Pause_State()</text>
</a>
</g>
</g>
<!-- Node2&#45;&gt;Node5 -->
<g id="edge4" class="edge">
<title>Node2&#45;&gt;Node5</title>
<path fill="none" stroke="midnightblue" d="M181.88,-178.85C185.5,-168.98 188.88,-159.77 191.8,-151.81"/>
<polygon fill="none" stroke="midnightblue" points="178.51,-177.89 178.35,-188.48 185.08,-180.3 178.51,-177.89"/>
</g>
<!-- Node4 -->
<g id="node4" class="node">
<title>Node4</title>
<g id="a_node4"><a xlink:href="classGame__Complete__State.html" target="_top" xlink:title=" ">
<polygon fill="white" stroke="black" points="0,-0.5 0,-57.5 148,-57.5 148,-0.5 0,-0.5"/>
<text text-anchor="middle" x="74" y="-45.5" font-family="Helvetica,sans-Serif" font-size="10.00">Game_Complete_State</text>
<polyline fill="none" stroke="black" points="0,-38.5 148,-38.5 "/>
<text text-anchor="middle" x="74" y="-26.5" font-family="Helvetica,sans-Serif" font-size="10.00"> </text>
<polyline fill="none" stroke="black" points="0,-19.5 148,-19.5 "/>
<text text-anchor="start" x="8" y="-7.5" font-family="Helvetica,sans-Serif" font-size="10.00">+ Game_Complete_State()</text>
</a>
</g>
</g>
<!-- Node3&#45;&gt;Node4 -->
<g id="edge3" class="edge">
<title>Node3&#45;&gt;Node4</title>
<path fill="none" stroke="midnightblue" d="M74,-84.21C74,-75.29 74,-65.95 74,-57.58"/>
<polygon fill="none" stroke="midnightblue" points="70.5,-84.4 74,-94.4 77.5,-84.4 70.5,-84.4"/>
</g>
</g>
</svg>
        <g id="navigator" transform="translate(0 0)" fill="#404254">
                <rect fill="#f2f5e9" fill-opacity="0.5" stroke="#606060" stroke-width=".5" x="0" y="0" width="60" height="60"/>
                <use id="zoomplus" xlink:href="#zoomPlus" x="17" y="9" onmousedown="handleZoom(evt,'in')"/>
                <use id="zoomminus" xlink:href="#zoomMin" x="42" y="9" onmousedown="handleZoom(evt,'out')"/>
                <use id="reset" xlink:href="#resetDef" x="30" y="36" onmousedown="handleReset()"/>
                <g id="arrowUp" xlink:href="#dirArrow" transform="translate(30 24)" onmousedown="handlePan(0,-1)">
                  <use xlink:href="#rim" fill="#404040">
                        <set attributeName="fill" to="#808080" begin="arrowUp.mouseover" end="arrowUp.mouseout"/>
                  </use>
                  <path fill="none" stroke="white" stroke-width="1.5" d="M0,-3.0v7 M-2.5,-0.5L0,-3.0L2.5,-0.5"/>
                </g>
                <g id="arrowRight" xlink:href="#dirArrow" transform="rotate(90) translate(36 -43)" onmousedown="handlePan(1,0)">
                  <use xlink:href="#rim" fill="#404040">
                        <set attributeName="fill" to="#808080" begin="arrowRight.mouseover" end="arrowRight.mouseout"/>
                  </use>
                  <path fill="none" stroke="white" stroke-width="1.5" d="M0,-3.0v7 M-2.5,-0.5L0,-3.0L2.5,-0.5"/>
                </g>
                <g id="arrowDown" xlink:href="#dirArrow" transform="rotate(180) translate(-30 -48)" onmousedown="handlePan(0,1)">
                  <use xlink:href="#rim" fill="#404040">
                        <set attributeName="fill" to="#808080" begin="arrowDown.mouseover" end="arrowDown.mouseout"/>
                  </use>
                  <path fill="none" stroke="white" stroke-width="1.5" d="M0,-3.0v7 M-2.5,-0.5L0,-3.0L2.5,-0.5"/>
                </g>
                <g id="arrowLeft" xlink:href="#dirArrow" transform="rotate(270) translate(-36 17)" onmousedown="handlePan(-1,0)">
                  <use xlink:href="#rim" fill="#404040">
                        <set attributeName="fill" to="#808080" begin="arrowLeft.mouseover" end="arrowLeft.mouseout"/>
                  </use>
                  <path fill="none" stroke="white" stroke-width="1.5" d="M0,-3.0v7 M-2.5,-0.5L0,-3.0L2.5,-0.5"/>
                </g>
        </g>
        <svg viewBox="0 0 15 15" width="100%" height="30px" preserveAspectRatio="xMaxYMin meet">
         <g id="arrow_out" transform="scale(0.3 0.3)">
          <a xlink:href="classState__inherit__graph_org.svg" target="_base">
           <rect id="button" ry="5" rx="5" y="6" x="6" height="38" width="38"
                fill="#f2f5e9" fill-opacity="0.5" stroke="#606060" stroke-width="1.0"/>
           <path id="arrow"
             d="M 11.500037,31.436501 C 11.940474,20.09759 22.043105,11.32322 32.158766,21.979434 L 37.068811,17.246167 C 37.068811,17.246167 37.088388,32 37.088388,32 L 22.160133,31.978069 C 22.160133,31.978069 26.997745,27.140456 26.997745,27.140456 C 18.528582,18.264221 13.291696,25.230495 11.500037,31.436501 z"
             style="fill:#404040;"/>
          </a>
         </g>
        </svg>
</svg>
