<?xml version="1.0" encoding="UTF-8" standalone="no"?>
<!DOCTYPE svg PUBLIC "-//W3C//DTD SVG 1.1//EN"
 "http://www.w3.org/Graphics/SVG/1.1/DTD/svg11.dtd">
<!-- Generated by graphviz version 2.43.0 (0)
 -->
<!-- Title: Solid_Block Pages: 1 -->
<svg width="298pt" height="496pt"
 viewBox="0.00 0.00 297.50 496.00" xmlns="http://www.w3.org/2000/svg" xmlns:xlink="http://www.w3.org/1999/xlink">
<g id="graph0" class="graph" transform="scale(1 1) rotate(0) translate(4 492)">
<title>Solid_Block</title>
<polygon fill="white" stroke="transparent" points="-4,4 -4,-492 293.5,-492 293.5,4 -4,4"/>
<!-- Node1 -->
<g id="node1" class="node">
<title>Node1</title>
<g id="a_node1"><a xlink:title=" ">
<polygon fill="#bfbfbf" stroke="black" points="88.5,-116.5 88.5,-228.5 199.5,-228.5 199.5,-116.5 88.5,-116.5"/>
<text text-anchor="middle" x="144" y="-216.5" font-family="Helvetica,sans-Serif" font-size="10.00">Solid_Block</text>
<polyline fill="none" stroke="black" points="88.5,-209.5 199.5,-209.5 "/>
<text text-anchor="middle" x="144" y="-197.5" font-family="Helvetica,sans-Serif" font-size="10.00"> </text>
<polyline fill="none" stroke="black" points="88.5,-190.5 199.5,-190.5 "/>
<text text-anchor="start" x="96.5" y="-178.5" font-family="Helvetica,sans-Serif" font-size="10.00">+ Solid_Block(float</text>
<text text-anchor="start" x="96.5" y="-167.5" font-family="Helvetica,sans-Serif" font-size="10.00"> x, float y, int level,</text>
<text text-anchor="start" x="96.5" y="-156.5" font-family="Helvetica,sans-Serif" font-size="10.00"> char c)</text>
<text text-anchor="start" x="96.5" y="-145.5" font-family="Helvetica,sans-Serif" font-size="10.00">+ Solid_Block(float</text>
<text text-anchor="start" x="96.5" y="-134.5" font-family="Helvetica,sans-Serif" font-size="10.00"> x, float y, int w,</text>
<text text-anchor="start" x="96.5" y="-123.5" font-family="Helvetica,sans-Serif" font-size="10.00"> int h)</text>
</a>
</g>
</g>
<!-- Node3 -->
<g id="node3" class="node">
<title>Node3</title>
<g id="a_node3"><a xlink:href="classBridge.html" target="_top" xlink:title=" ">
<polygon fill="white" stroke="black" points="0,-0.5 0,-79.5 134,-79.5 134,-0.5 0,-0.5"/>
<text text-anchor="middle" x="67" y="-67.5" font-family="Helvetica,sans-Serif" font-size="10.00">Bridge</text>
<polyline fill="none" stroke="black" points="0,-60.5 134,-60.5 "/>
<text text-anchor="middle" x="67" y="-48.5" font-family="Helvetica,sans-Serif" font-size="10.00"> </text>
<polyline fill="none" stroke="black" points="0,-41.5 134,-41.5 "/>
<text text-anchor="start" x="8" y="-29.5" font-family="Helvetica,sans-Serif" font-size="10.00">+ Bridge(float x, float y)</text>
<text text-anchor="start" x="8" y="-18.5" font-family="Helvetica,sans-Serif" font-size="10.00">+ sf::FloatRect get_rect</text>
<text text-anchor="start" x="8" y="-7.5" font-family="Helvetica,sans-Serif" font-size="10.00">() const override</text>
</a>
</g>
</g>
<!-- Node1&#45;&gt;Node3 -->
<g id="edge2" class="edge">
<title>Node1&#45;&gt;Node3</title>
<path fill="none" stroke="midnightblue" d="M106.24,-107.5C100.66,-98.05 95.06,-88.56 89.91,-79.82"/>
<polygon fill="none" stroke="midnightblue" points="103.25,-109.32 111.35,-116.16 109.28,-105.77 103.25,-109.32"/>
</g>
<!-- Node4 -->
<g id="node4" class="node">
<title>Node4</title>
<g id="a_node4"><a xlink:href="classFan.html" target="_top" xlink:title=" ">
<polygon fill="white" stroke="black" points="152.5,-6 152.5,-74 289.5,-74 289.5,-6 152.5,-6"/>
<text text-anchor="middle" x="221" y="-62" font-family="Helvetica,sans-Serif" font-size="10.00">Fan</text>
<polyline fill="none" stroke="black" points="152.5,-55 289.5,-55 "/>
<text text-anchor="middle" x="221" y="-43" font-family="Helvetica,sans-Serif" font-size="10.00"> </text>
<polyline fill="none" stroke="black" points="152.5,-36 289.5,-36 "/>
<text text-anchor="start" x="160.5" y="-24" font-family="Helvetica,sans-Serif" font-size="10.00">+ Fan(float x, float y)</text>
<text text-anchor="start" x="160.5" y="-13" font-family="Helvetica,sans-Serif" font-size="10.00">+ void update() override</text>
</a>
</g>
</g>
<!-- Node1&#45;&gt;Node4 -->
<g id="edge3" class="edge">
<title>Node1&#45;&gt;Node4</title>
<path fill="none" stroke="midnightblue" d="M181.83,-107.38C188.63,-95.86 195.46,-84.29 201.46,-74.11"/>
<polygon fill="none" stroke="midnightblue" points="178.72,-105.77 176.65,-116.16 184.75,-109.32 178.72,-105.77"/>
</g>
<!-- Node2 -->
<g id="node2" class="node">
<title>Node2</title>
<g id="a_node2"><a xlink:href="classGame__Object.html" target="_top" xlink:title=" ">
<polygon fill="white" stroke="black" points="64.5,-265.5 64.5,-487.5 223.5,-487.5 223.5,-265.5 64.5,-265.5"/>
<text text-anchor="middle" x="144" y="-475.5" font-family="Helvetica,sans-Serif" font-size="10.00">Game_Object</text>
<polyline fill="none" stroke="black" points="64.5,-468.5 223.5,-468.5 "/>
<text text-anchor="start" x="72.5" y="-456.5" font-family="Helvetica,sans-Serif" font-size="10.00"># sf::Vector2f position</text>
<text text-anchor="start" x="72.5" y="-445.5" font-family="Helvetica,sans-Serif" font-size="10.00"># int width</text>
<text text-anchor="start" x="72.5" y="-434.5" font-family="Helvetica,sans-Serif" font-size="10.00"># int height</text>
<text text-anchor="start" x="72.5" y="-423.5" font-family="Helvetica,sans-Serif" font-size="10.00"># sf::Sprite sprite</text>
<polyline fill="none" stroke="black" points="64.5,-416.5 223.5,-416.5 "/>
<text text-anchor="start" x="72.5" y="-404.5" font-family="Helvetica,sans-Serif" font-size="10.00">+ Game_Object(float</text>
<text text-anchor="start" x="72.5" y="-393.5" font-family="Helvetica,sans-Serif" font-size="10.00"> x, float y, int w,</text>
<text text-anchor="start" x="72.5" y="-382.5" font-family="Helvetica,sans-Serif" font-size="10.00"> int h)</text>
<text text-anchor="start" x="72.5" y="-371.5" font-family="Helvetica,sans-Serif" font-size="10.00">+ virtual ~Game_Object</text>
<text text-anchor="start" x="72.5" y="-360.5" font-family="Helvetica,sans-Serif" font-size="10.00">()=default</text>
<text text-anchor="start" x="72.5" y="-349.5" font-family="Helvetica,sans-Serif" font-size="10.00">+ virtual void update()</text>
<text text-anchor="start" x="72.5" y="-338.5" font-family="Helvetica,sans-Serif" font-size="10.00">+ virtual void render</text>
<text text-anchor="start" x="72.5" y="-327.5" font-family="Helvetica,sans-Serif" font-size="10.00">(sf::RenderWindow &amp;window,</text>
<text text-anchor="start" x="72.5" y="-316.5" font-family="Helvetica,sans-Serif" font-size="10.00"> Camera &amp;camera)</text>
<text text-anchor="start" x="72.5" y="-305.5" font-family="Helvetica,sans-Serif" font-size="10.00">+ virtual sf::FloatRect</text>
<text text-anchor="start" x="72.5" y="-294.5" font-family="Helvetica,sans-Serif" font-size="10.00"> get_rect() const</text>
<text text-anchor="start" x="72.5" y="-283.5" font-family="Helvetica,sans-Serif" font-size="10.00">+ sf::Vector2f get_position</text>
<text text-anchor="start" x="72.5" y="-272.5" font-family="Helvetica,sans-Serif" font-size="10.00">() const</text>
</a>
</g>
</g>
<!-- Node2&#45;&gt;Node1 -->
<g id="edge1" class="edge">
<title>Node2&#45;&gt;Node1</title>
<path fill="none" stroke="midnightblue" d="M144,-255.24C144,-246.01 144,-236.99 144,-228.53"/>
<polygon fill="none" stroke="midnightblue" points="140.5,-255.34 144,-265.34 147.5,-255.34 140.5,-255.34"/>
</g>
</g>
</svg>
