<?xml version="1.0" encoding="UTF-8" standalone="no"?>
<!DOCTYPE svg PUBLIC "-//W3C//DTD SVG 1.1//EN"
 "http://www.w3.org/Graphics/SVG/1.1/DTD/svg11.dtd">
<!-- Generated by graphviz version 2.43.0 (0)
 -->
<!-- Title: Enemy::update Pages: 1 -->
<svg width="277pt" height="88pt"
 viewBox="0.00 0.00 277.00 88.00" xmlns="http://www.w3.org/2000/svg" xmlns:xlink="http://www.w3.org/1999/xlink">
<g id="graph0" class="graph" transform="scale(1 1) rotate(0) translate(4 84)">
<title>Enemy::update</title>
<polygon fill="white" stroke="transparent" points="-4,4 -4,-84 273,-84 273,4 -4,4"/>
<!-- Node1 -->
<g id="node1" class="node">
<title>Node1</title>
<g id="a_node1"><a xlink:title=" ">
<polygon fill="#bfbfbf" stroke="black" points="0,-30 0,-49 89,-49 89,-30 0,-30"/>
<text text-anchor="middle" x="44.5" y="-37" font-family="Helvetica,sans-Serif" font-size="10.00">Enemy::update</text>
</a>
</g>
</g>
<!-- Node2 -->
<g id="node2" class="node">
<title>Node2</title>
<g id="a_node2"><a xlink:href="classEnemy.html#a91eb14875532107ea1ce5018b2f36571" target="_top" xlink:title=" ">
<polygon fill="white" stroke="black" points="125,-49.5 125,-79.5 269,-79.5 269,-49.5 125,-49.5"/>
<text text-anchor="start" x="133" y="-67.5" font-family="Helvetica,sans-Serif" font-size="10.00">Enemy::update_animation</text>
<text text-anchor="middle" x="197" y="-56.5" font-family="Helvetica,sans-Serif" font-size="10.00">_state</text>
</a>
</g>
</g>
<!-- Node1&#45;&gt;Node2 -->
<g id="edge1" class="edge">
<title>Node1&#45;&gt;Node2</title>
<path fill="none" stroke="midnightblue" d="M89.03,-46.73C97.17,-48.08 105.91,-49.53 114.76,-51.01"/>
<polygon fill="midnightblue" stroke="midnightblue" points="114.34,-54.48 124.78,-52.67 115.49,-47.58 114.34,-54.48"/>
</g>
<!-- Node3 -->
<g id="node3" class="node">
<title>Node3</title>
<g id="a_node3"><a xlink:href="classMoving__Object.html#aab7c82fa7c9a71f4e96317442accb7c5" target="_top" xlink:title=" ">
<polygon fill="white" stroke="black" points="132.5,-0.5 132.5,-30.5 261.5,-30.5 261.5,-0.5 132.5,-0.5"/>
<text text-anchor="start" x="140.5" y="-18.5" font-family="Helvetica,sans-Serif" font-size="10.00">Moving_Object::update</text>
<text text-anchor="middle" x="197" y="-7.5" font-family="Helvetica,sans-Serif" font-size="10.00">_texture</text>
</a>
</g>
</g>
<!-- Node1&#45;&gt;Node3 -->
<g id="edge2" class="edge">
<title>Node1&#45;&gt;Node3</title>
<path fill="none" stroke="midnightblue" d="M89.03,-32.56C99.51,-30.89 110.98,-29.06 122.41,-27.24"/>
<polygon fill="midnightblue" stroke="midnightblue" points="123.09,-30.67 132.41,-25.64 121.99,-23.76 123.09,-30.67"/>
</g>
</g>
</svg>
