<?xml version="1.0" encoding="UTF-8" standalone="no"?>
<!DOCTYPE svg PUBLIC "-//W3C//DTD SVG 1.1//EN"
 "http://www.w3.org/Graphics/SVG/1.1/DTD/svg11.dtd">
<!-- Generated by graphviz version 2.43.0 (0)
 -->
<!-- Title: Audio_Manager::start_menu_music Pages: 1 -->
<svg width="273pt" height="66pt"
 viewBox="0.00 0.00 273.00 66.00" xmlns="http://www.w3.org/2000/svg" xmlns:xlink="http://www.w3.org/1999/xlink">
<g id="graph0" class="graph" transform="scale(1 1) rotate(0) translate(4 62)">
<title>Audio_Manager::start_menu_music</title>
<polygon fill="white" stroke="transparent" points="-4,4 -4,-62 269,-62 269,4 -4,4"/>
<!-- Node1 -->
<g id="node1" class="node">
<title>Node1</title>
<g id="a_node1"><a xlink:title=" ">
<polygon fill="#bfbfbf" stroke="black" points="144,-14 144,-44 265,-44 265,-14 144,-14"/>
<text text-anchor="start" x="152" y="-32" font-family="Helvetica,sans-Serif" font-size="10.00">Audio_Manager::start</text>
<text text-anchor="middle" x="204.5" y="-21" font-family="Helvetica,sans-Serif" font-size="10.00">_menu_music</text>
</a>
</g>
</g>
<!-- Node2 -->
<g id="node2" class="node">
<title>Node2</title>
<g id="a_node2"><a xlink:href="classGame__Engine.html#a2b53d222750d14766fba51e038cb8b8f" target="_top" xlink:title=" ">
<polygon fill="white" stroke="black" points="1,-38.5 1,-57.5 107,-57.5 107,-38.5 1,-38.5"/>
<text text-anchor="middle" x="54" y="-45.5" font-family="Helvetica,sans-Serif" font-size="10.00">Game_Engine::run</text>
</a>
</g>
</g>
<!-- Node1&#45;&gt;Node2 -->
<g id="edge1" class="edge">
<title>Node1&#45;&gt;Node2</title>
<path fill="none" stroke="midnightblue" d="M133.93,-37.9C125,-39.04 115.97,-40.2 107.37,-41.3"/>
<polygon fill="midnightblue" stroke="midnightblue" points="134.48,-41.36 143.96,-36.62 133.59,-34.42 134.48,-41.36"/>
</g>
<!-- Node3 -->
<g id="node3" class="node">
<title>Node3</title>
<g id="a_node3"><a xlink:href="classPlay__State.html#ac2cb75159b64f447b821bea1fa506f04" target="_top" xlink:title=" ">
<polygon fill="white" stroke="black" points="0,-0.5 0,-19.5 108,-19.5 108,-0.5 0,-0.5"/>
<text text-anchor="middle" x="54" y="-7.5" font-family="Helvetica,sans-Serif" font-size="10.00">Play_State::update</text>
</a>
</g>
</g>
<!-- Node1&#45;&gt;Node3 -->
<g id="edge2" class="edge">
<title>Node1&#45;&gt;Node3</title>
<path fill="none" stroke="midnightblue" d="M133.92,-20.1C125.32,-19 116.63,-17.89 108.32,-16.82"/>
<polygon fill="midnightblue" stroke="midnightblue" points="133.59,-23.58 143.96,-21.38 134.48,-16.64 133.59,-23.58"/>
</g>
</g>
</svg>
