<?xml version="1.0" encoding="UTF-8" standalone="no"?>
<!DOCTYPE svg PUBLIC "-//W3C//DTD SVG 1.1//EN"
 "http://www.w3.org/Graphics/SVG/1.1/DTD/svg11.dtd">
<!-- Generated by graphviz version 2.43.0 (0)
 -->
<!-- Title: Fan Pages: 1 -->
<svg width="167pt" height="485pt"
 viewBox="0.00 0.00 167.00 485.00" xmlns="http://www.w3.org/2000/svg" xmlns:xlink="http://www.w3.org/1999/xlink">
<g id="graph0" class="graph" transform="scale(1 1) rotate(0) translate(4 481)">
<title>Fan</title>
<polygon fill="white" stroke="transparent" points="-4,4 -4,-481 163,-481 163,4 -4,4"/>
<!-- Node1 -->
<g id="node1" class="node">
<title>Node1</title>
<g id="a_node1"><a xlink:title=" ">
<polygon fill="#bfbfbf" stroke="black" points="11,-0.5 11,-68.5 148,-68.5 148,-0.5 11,-0.5"/>
<text text-anchor="middle" x="79.5" y="-56.5" font-family="Helvetica,sans-Serif" font-size="10.00">Fan</text>
<polyline fill="none" stroke="black" points="11,-49.5 148,-49.5 "/>
<text text-anchor="middle" x="79.5" y="-37.5" font-family="Helvetica,sans-Serif" font-size="10.00"> </text>
<polyline fill="none" stroke="black" points="11,-30.5 148,-30.5 "/>
<text text-anchor="start" x="19" y="-18.5" font-family="Helvetica,sans-Serif" font-size="10.00">+ Fan(float x, float y)</text>
<text text-anchor="start" x="19" y="-7.5" font-family="Helvetica,sans-Serif" font-size="10.00">+ void update() override</text>
</a>
</g>
</g>
<!-- Node2 -->
<g id="node2" class="node">
<title>Node2</title>
<g id="a_node2"><a xlink:href="classSolid__Block.html" target="_top" xlink:title=" ">
<polygon fill="white" stroke="black" points="24,-105.5 24,-217.5 135,-217.5 135,-105.5 24,-105.5"/>
<text text-anchor="middle" x="79.5" y="-205.5" font-family="Helvetica,sans-Serif" font-size="10.00">Solid_Block</text>
<polyline fill="none" stroke="black" points="24,-198.5 135,-198.5 "/>
<text text-anchor="middle" x="79.5" y="-186.5" font-family="Helvetica,sans-Serif" font-size="10.00"> </text>
<polyline fill="none" stroke="black" points="24,-179.5 135,-179.5 "/>
<text text-anchor="start" x="32" y="-167.5" font-family="Helvetica,sans-Serif" font-size="10.00">+ Solid_Block(float</text>
<text text-anchor="start" x="32" y="-156.5" font-family="Helvetica,sans-Serif" font-size="10.00"> x, float y, int level,</text>
<text text-anchor="start" x="32" y="-145.5" font-family="Helvetica,sans-Serif" font-size="10.00"> char c)</text>
<text text-anchor="start" x="32" y="-134.5" font-family="Helvetica,sans-Serif" font-size="10.00">+ Solid_Block(float</text>
<text text-anchor="start" x="32" y="-123.5" font-family="Helvetica,sans-Serif" font-size="10.00"> x, float y, int w,</text>
<text text-anchor="start" x="32" y="-112.5" font-family="Helvetica,sans-Serif" font-size="10.00"> int h)</text>
</a>
</g>
</g>
<!-- Node2&#45;&gt;Node1 -->
<g id="edge1" class="edge">
<title>Node2&#45;&gt;Node1</title>
<path fill="none" stroke="midnightblue" d="M79.5,-95.26C79.5,-85.99 79.5,-76.8 79.5,-68.51"/>
<polygon fill="none" stroke="midnightblue" points="76,-95.31 79.5,-105.31 83,-95.31 76,-95.31"/>
</g>
<!-- Node3 -->
<g id="node3" class="node">
<title>Node3</title>
<g id="a_node3"><a xlink:href="classGame__Object.html" target="_top" xlink:title=" ">
<polygon fill="white" stroke="black" points="0,-254.5 0,-476.5 159,-476.5 159,-254.5 0,-254.5"/>
<text text-anchor="middle" x="79.5" y="-464.5" font-family="Helvetica,sans-Serif" font-size="10.00">Game_Object</text>
<polyline fill="none" stroke="black" points="0,-457.5 159,-457.5 "/>
<text text-anchor="start" x="8" y="-445.5" font-family="Helvetica,sans-Serif" font-size="10.00"># sf::Vector2f position</text>
<text text-anchor="start" x="8" y="-434.5" font-family="Helvetica,sans-Serif" font-size="10.00"># int width</text>
<text text-anchor="start" x="8" y="-423.5" font-family="Helvetica,sans-Serif" font-size="10.00"># int height</text>
<text text-anchor="start" x="8" y="-412.5" font-family="Helvetica,sans-Serif" font-size="10.00"># sf::Sprite sprite</text>
<polyline fill="none" stroke="black" points="0,-405.5 159,-405.5 "/>
<text text-anchor="start" x="8" y="-393.5" font-family="Helvetica,sans-Serif" font-size="10.00">+ Game_Object(float</text>
<text text-anchor="start" x="8" y="-382.5" font-family="Helvetica,sans-Serif" font-size="10.00"> x, float y, int w,</text>
<text text-anchor="start" x="8" y="-371.5" font-family="Helvetica,sans-Serif" font-size="10.00"> int h)</text>
<text text-anchor="start" x="8" y="-360.5" font-family="Helvetica,sans-Serif" font-size="10.00">+ virtual ~Game_Object</text>
<text text-anchor="start" x="8" y="-349.5" font-family="Helvetica,sans-Serif" font-size="10.00">()=default</text>
<text text-anchor="start" x="8" y="-338.5" font-family="Helvetica,sans-Serif" font-size="10.00">+ virtual void update()</text>
<text text-anchor="start" x="8" y="-327.5" font-family="Helvetica,sans-Serif" font-size="10.00">+ virtual void render</text>
<text text-anchor="start" x="8" y="-316.5" font-family="Helvetica,sans-Serif" font-size="10.00">(sf::RenderWindow &amp;window,</text>
<text text-anchor="start" x="8" y="-305.5" font-family="Helvetica,sans-Serif" font-size="10.00"> Camera &amp;camera)</text>
<text text-anchor="start" x="8" y="-294.5" font-family="Helvetica,sans-Serif" font-size="10.00">+ virtual sf::FloatRect</text>
<text text-anchor="start" x="8" y="-283.5" font-family="Helvetica,sans-Serif" font-size="10.00"> get_rect() const</text>
<text text-anchor="start" x="8" y="-272.5" font-family="Helvetica,sans-Serif" font-size="10.00">+ sf::Vector2f get_position</text>
<text text-anchor="start" x="8" y="-261.5" font-family="Helvetica,sans-Serif" font-size="10.00">() const</text>
</a>
</g>
</g>
<!-- Node3&#45;&gt;Node2 -->
<g id="edge2" class="edge">
<title>Node3&#45;&gt;Node2</title>
<path fill="none" stroke="midnightblue" d="M79.5,-244.24C79.5,-235.01 79.5,-225.99 79.5,-217.53"/>
<polygon fill="none" stroke="midnightblue" points="76,-244.34 79.5,-254.34 83,-244.34 76,-244.34"/>
</g>
</g>
</svg>
