<?xml version="1.0" encoding="UTF-8" standalone="no"?>
<!DOCTYPE svg PUBLIC "-//W3C//DTD SVG 1.1//EN"
 "http://www.w3.org/Graphics/SVG/1.1/DTD/svg11.dtd">
<!-- Generated by graphviz version 2.43.0 (0)
 -->
<!-- Title: Door Pages: 1 -->
<svg width="167pt" height="336pt"
 viewBox="0.00 0.00 167.00 336.00" xmlns="http://www.w3.org/2000/svg" xmlns:xlink="http://www.w3.org/1999/xlink">
<g id="graph0" class="graph" transform="scale(1 1) rotate(0) translate(4 332)">
<title>Door</title>
<polygon fill="white" stroke="transparent" points="-4,4 -4,-332 163,-332 163,4 -4,4"/>
<!-- Node1 -->
<g id="node1" class="node">
<title>Node1</title>
<g id="a_node1"><a xlink:title=" ">
<polygon fill="#bfbfbf" stroke="black" points="23,-0.5 23,-68.5 136,-68.5 136,-0.5 23,-0.5"/>
<text text-anchor="middle" x="79.5" y="-56.5" font-family="Helvetica,sans-Serif" font-size="10.00">Door</text>
<polyline fill="none" stroke="black" points="23,-49.5 136,-49.5 "/>
<text text-anchor="middle" x="79.5" y="-37.5" font-family="Helvetica,sans-Serif" font-size="10.00"> </text>
<polyline fill="none" stroke="black" points="23,-30.5 136,-30.5 "/>
<text text-anchor="start" x="31" y="-18.5" font-family="Helvetica,sans-Serif" font-size="10.00">+ Door(float x, float</text>
<text text-anchor="start" x="31" y="-7.5" font-family="Helvetica,sans-Serif" font-size="10.00"> y, int level)</text>
</a>
</g>
</g>
<!-- Node2 -->
<g id="node2" class="node">
<title>Node2</title>
<g id="a_node2"><a xlink:href="classGame__Object.html" target="_top" xlink:title=" ">
<polygon fill="white" stroke="black" points="0,-105.5 0,-327.5 159,-327.5 159,-105.5 0,-105.5"/>
<text text-anchor="middle" x="79.5" y="-315.5" font-family="Helvetica,sans-Serif" font-size="10.00">Game_Object</text>
<polyline fill="none" stroke="black" points="0,-308.5 159,-308.5 "/>
<text text-anchor="start" x="8" y="-296.5" font-family="Helvetica,sans-Serif" font-size="10.00"># sf::Vector2f position</text>
<text text-anchor="start" x="8" y="-285.5" font-family="Helvetica,sans-Serif" font-size="10.00"># int width</text>
<text text-anchor="start" x="8" y="-274.5" font-family="Helvetica,sans-Serif" font-size="10.00"># int height</text>
<text text-anchor="start" x="8" y="-263.5" font-family="Helvetica,sans-Serif" font-size="10.00"># sf::Sprite sprite</text>
<polyline fill="none" stroke="black" points="0,-256.5 159,-256.5 "/>
<text text-anchor="start" x="8" y="-244.5" font-family="Helvetica,sans-Serif" font-size="10.00">+ Game_Object(float</text>
<text text-anchor="start" x="8" y="-233.5" font-family="Helvetica,sans-Serif" font-size="10.00"> x, float y, int w,</text>
<text text-anchor="start" x="8" y="-222.5" font-family="Helvetica,sans-Serif" font-size="10.00"> int h)</text>
<text text-anchor="start" x="8" y="-211.5" font-family="Helvetica,sans-Serif" font-size="10.00">+ virtual ~Game_Object</text>
<text text-anchor="start" x="8" y="-200.5" font-family="Helvetica,sans-Serif" font-size="10.00">()=default</text>
<text text-anchor="start" x="8" y="-189.5" font-family="Helvetica,sans-Serif" font-size="10.00">+ virtual void update()</text>
<text text-anchor="start" x="8" y="-178.5" font-family="Helvetica,sans-Serif" font-size="10.00">+ virtual void render</text>
<text text-anchor="start" x="8" y="-167.5" font-family="Helvetica,sans-Serif" font-size="10.00">(sf::RenderWindow &amp;window,</text>
<text text-anchor="start" x="8" y="-156.5" font-family="Helvetica,sans-Serif" font-size="10.00"> Camera &amp;camera)</text>
<text text-anchor="start" x="8" y="-145.5" font-family="Helvetica,sans-Serif" font-size="10.00">+ virtual sf::FloatRect</text>
<text text-anchor="start" x="8" y="-134.5" font-family="Helvetica,sans-Serif" font-size="10.00"> get_rect() const</text>
<text text-anchor="start" x="8" y="-123.5" font-family="Helvetica,sans-Serif" font-size="10.00">+ sf::Vector2f get_position</text>
<text text-anchor="start" x="8" y="-112.5" font-family="Helvetica,sans-Serif" font-size="10.00">() const</text>
</a>
</g>
</g>
<!-- Node2&#45;&gt;Node1 -->
<g id="edge1" class="edge">
<title>Node2&#45;&gt;Node1</title>
<path fill="none" stroke="midnightblue" d="M79.5,-95.22C79.5,-85.66 79.5,-76.61 79.5,-68.59"/>
<polygon fill="none" stroke="midnightblue" points="76,-95.35 79.5,-105.35 83,-95.35 76,-95.35"/>
</g>
</g>
</svg>
