<?xml version="1.0" encoding="UTF-8" standalone="no"?>
<!DOCTYPE svg PUBLIC "-//W3C//DTD SVG 1.1//EN"
 "http://www.w3.org/Graphics/SVG/1.1/DTD/svg11.dtd">
<!-- Generated by graphviz version 2.43.0 (0)
 -->
<!-- Title: State Pages: 1 -->
<svg width="582pt" height="546pt"
 viewBox="0.00 0.00 582.00 546.00" xmlns="http://www.w3.org/2000/svg" xmlns:xlink="http://www.w3.org/1999/xlink">
<g id="graph0" class="graph" transform="scale(1 1) rotate(0) translate(4 542)">
<title>State</title>
<polygon fill="white" stroke="transparent" points="-4,4 -4,-542 578,-542 578,4 -4,4"/>
<!-- Node1 -->
<g id="node1" class="node">
<title>Node1</title>
<g id="a_node1"><a xlink:title=" ">
<polygon fill="#bfbfbf" stroke="black" points="243,-447.5 243,-537.5 389,-537.5 389,-447.5 243,-447.5"/>
<text text-anchor="middle" x="316" y="-525.5" font-family="Helvetica,sans-Serif" font-size="10.00">State</text>
<polyline fill="none" stroke="black" points="243,-518.5 389,-518.5 "/>
<text text-anchor="middle" x="316" y="-506.5" font-family="Helvetica,sans-Serif" font-size="10.00"> </text>
<polyline fill="none" stroke="black" points="243,-499.5 389,-499.5 "/>
<text text-anchor="start" x="251" y="-487.5" font-family="Helvetica,sans-Serif" font-size="10.00">+ virtual ~State()=default</text>
<text text-anchor="start" x="251" y="-476.5" font-family="Helvetica,sans-Serif" font-size="10.00">+ virtual State_Action</text>
<text text-anchor="start" x="251" y="-465.5" font-family="Helvetica,sans-Serif" font-size="10.00"> update(sf::RenderWindow</text>
<text text-anchor="start" x="251" y="-454.5" font-family="Helvetica,sans-Serif" font-size="10.00"> &amp;window)=0</text>
</a>
</g>
</g>
<!-- Node2 -->
<g id="node2" class="node">
<title>Node2</title>
<g id="a_node2"><a xlink:href="classMenu__State.html" target="_top" xlink:title=" ">
<polygon fill="white" stroke="black" points="58,-188.5 58,-410.5 218,-410.5 218,-188.5 58,-188.5"/>
<text text-anchor="middle" x="138" y="-398.5" font-family="Helvetica,sans-Serif" font-size="10.00">Menu_State</text>
<polyline fill="none" stroke="black" points="58,-391.5 218,-391.5 "/>
<text text-anchor="start" x="66" y="-379.5" font-family="Helvetica,sans-Serif" font-size="10.00"># sf::Sprite background</text>
<text text-anchor="start" x="66" y="-368.5" font-family="Helvetica,sans-Serif" font-size="10.00"># sf::Text new_game</text>
<text text-anchor="start" x="66" y="-357.5" font-family="Helvetica,sans-Serif" font-size="10.00"># sf::Text exit</text>
<text text-anchor="start" x="66" y="-346.5" font-family="Helvetica,sans-Serif" font-size="10.00"># sf::Font font</text>
<text text-anchor="start" x="66" y="-335.5" font-family="Helvetica,sans-Serif" font-size="10.00"># Menu_Choice choice</text>
<polyline fill="none" stroke="black" points="58,-328.5 218,-328.5 "/>
<text text-anchor="start" x="66" y="-316.5" font-family="Helvetica,sans-Serif" font-size="10.00">+ Menu_State()</text>
<text text-anchor="start" x="66" y="-305.5" font-family="Helvetica,sans-Serif" font-size="10.00">+ State_Action update</text>
<text text-anchor="start" x="66" y="-294.5" font-family="Helvetica,sans-Serif" font-size="10.00">(sf::RenderWindow &amp;window)</text>
<text text-anchor="start" x="66" y="-283.5" font-family="Helvetica,sans-Serif" font-size="10.00"> override</text>
<text text-anchor="start" x="66" y="-272.5" font-family="Helvetica,sans-Serif" font-size="10.00"># void init_text()</text>
<text text-anchor="start" x="66" y="-261.5" font-family="Helvetica,sans-Serif" font-size="10.00"># virtual State_Action</text>
<text text-anchor="start" x="66" y="-250.5" font-family="Helvetica,sans-Serif" font-size="10.00"> execute_command(Menu</text>
<text text-anchor="start" x="66" y="-239.5" font-family="Helvetica,sans-Serif" font-size="10.00">_Choice choice) const</text>
<text text-anchor="start" x="66" y="-228.5" font-family="Helvetica,sans-Serif" font-size="10.00"># sf::Text create_text</text>
<text text-anchor="start" x="66" y="-217.5" font-family="Helvetica,sans-Serif" font-size="10.00">(sf::Font const &amp;font,</text>
<text text-anchor="start" x="66" y="-206.5" font-family="Helvetica,sans-Serif" font-size="10.00"> std::string const &amp;text,</text>
<text text-anchor="start" x="66" y="-195.5" font-family="Helvetica,sans-Serif" font-size="10.00"> sf::Vector2f const &amp;position)</text>
</a>
</g>
</g>
<!-- Node1&#45;&gt;Node2 -->
<g id="edge1" class="edge">
<title>Node1&#45;&gt;Node2</title>
<path fill="none" stroke="midnightblue" d="M256.91,-440.45C246.67,-430.94 236.32,-420.87 227,-411 224.04,-407.87 221.07,-404.64 218.1,-401.36"/>
<polygon fill="none" stroke="midnightblue" points="254.6,-443.09 264.33,-447.28 259.34,-437.93 254.6,-443.09"/>
</g>
<!-- Node6 -->
<g id="node6" class="node">
<title>Node6</title>
<g id="a_node6"><a xlink:href="classPlay__State.html" target="_top" xlink:title=" ">
<polygon fill="white" stroke="black" points="236,-249 236,-350 396,-350 396,-249 236,-249"/>
<text text-anchor="middle" x="316" y="-338" font-family="Helvetica,sans-Serif" font-size="10.00">Play_State</text>
<polyline fill="none" stroke="black" points="236,-331 396,-331 "/>
<text text-anchor="middle" x="316" y="-319" font-family="Helvetica,sans-Serif" font-size="10.00"> </text>
<polyline fill="none" stroke="black" points="236,-312 396,-312 "/>
<text text-anchor="start" x="244" y="-300" font-family="Helvetica,sans-Serif" font-size="10.00">+ Play_State(std::string</text>
<text text-anchor="start" x="244" y="-289" font-family="Helvetica,sans-Serif" font-size="10.00"> const &amp;level, int lvl)</text>
<text text-anchor="start" x="244" y="-278" font-family="Helvetica,sans-Serif" font-size="10.00">+ State_Action update</text>
<text text-anchor="start" x="244" y="-267" font-family="Helvetica,sans-Serif" font-size="10.00">(sf::RenderWindow &amp;window)</text>
<text text-anchor="start" x="244" y="-256" font-family="Helvetica,sans-Serif" font-size="10.00"> override</text>
</a>
</g>
</g>
<!-- Node1&#45;&gt;Node6 -->
<g id="edge5" class="edge">
<title>Node1&#45;&gt;Node6</title>
<path fill="none" stroke="midnightblue" d="M316,-437.03C316,-409.73 316,-376.9 316,-350.28"/>
<polygon fill="none" stroke="midnightblue" points="312.5,-437.2 316,-447.2 319.5,-437.2 312.5,-437.2"/>
</g>
<!-- Node7 -->
<g id="node7" class="node">
<title>Node7</title>
<g id="a_node7"><a xlink:href="classProlog__State.html" target="_top" xlink:title=" ">
<polygon fill="white" stroke="black" points="414,-249 414,-350 574,-350 574,-249 414,-249"/>
<text text-anchor="middle" x="494" y="-338" font-family="Helvetica,sans-Serif" font-size="10.00">Prolog_State</text>
<polyline fill="none" stroke="black" points="414,-331 574,-331 "/>
<text text-anchor="middle" x="494" y="-319" font-family="Helvetica,sans-Serif" font-size="10.00"> </text>
<polyline fill="none" stroke="black" points="414,-312 574,-312 "/>
<text text-anchor="start" x="422" y="-300" font-family="Helvetica,sans-Serif" font-size="10.00">+ Prolog_State(std::</text>
<text text-anchor="start" x="422" y="-289" font-family="Helvetica,sans-Serif" font-size="10.00">string const &amp;s)</text>
<text text-anchor="start" x="422" y="-278" font-family="Helvetica,sans-Serif" font-size="10.00">+ State_Action update</text>
<text text-anchor="start" x="422" y="-267" font-family="Helvetica,sans-Serif" font-size="10.00">(sf::RenderWindow &amp;window)</text>
<text text-anchor="start" x="422" y="-256" font-family="Helvetica,sans-Serif" font-size="10.00"> override</text>
</a>
</g>
</g>
<!-- Node1&#45;&gt;Node7 -->
<g id="edge6" class="edge">
<title>Node1&#45;&gt;Node7</title>
<path fill="none" stroke="midnightblue" d="M375.09,-440.45C385.33,-430.94 395.68,-420.87 405,-411 423.01,-391.93 441.44,-369.6 456.82,-350.03"/>
<polygon fill="none" stroke="midnightblue" points="372.66,-437.93 367.67,-447.28 377.4,-443.09 372.66,-437.93"/>
</g>
<!-- Node3 -->
<g id="node3" class="node">
<title>Node3</title>
<g id="a_node3"><a xlink:href="classGame__Over__State.html" target="_top" xlink:title=" ">
<polygon fill="white" stroke="black" points="12,-94.5 12,-151.5 136,-151.5 136,-94.5 12,-94.5"/>
<text text-anchor="middle" x="74" y="-139.5" font-family="Helvetica,sans-Serif" font-size="10.00">Game_Over_State</text>
<polyline fill="none" stroke="black" points="12,-132.5 136,-132.5 "/>
<text text-anchor="middle" x="74" y="-120.5" font-family="Helvetica,sans-Serif" font-size="10.00"> </text>
<polyline fill="none" stroke="black" points="12,-113.5 136,-113.5 "/>
<text text-anchor="start" x="20" y="-101.5" font-family="Helvetica,sans-Serif" font-size="10.00">+ Game_Over_State()</text>
</a>
</g>
</g>
<!-- Node2&#45;&gt;Node3 -->
<g id="edge2" class="edge">
<title>Node2&#45;&gt;Node3</title>
<path fill="none" stroke="midnightblue" d="M94.12,-178.85C90.5,-168.98 87.12,-159.77 84.2,-151.81"/>
<polygon fill="none" stroke="midnightblue" points="90.92,-180.3 97.65,-188.48 97.49,-177.89 90.92,-180.3"/>
</g>
<!-- Node5 -->
<g id="node5" class="node">
<title>Node5</title>
<g id="a_node5"><a xlink:href="classPause__State.html" target="_top" xlink:title=" ">
<polygon fill="white" stroke="black" points="154.5,-94.5 154.5,-151.5 249.5,-151.5 249.5,-94.5 154.5,-94.5"/>
<text text-anchor="middle" x="202" y="-139.5" font-family="Helvetica,sans-Serif" font-size="10.00">Pause_State</text>
<polyline fill="none" stroke="black" points="154.5,-132.5 249.5,-132.5 "/>
<text text-anchor="middle" x="202" y="-120.5" font-family="Helvetica,sans-Serif" font-size="10.00"> </text>
<polyline fill="none" stroke="black" points="154.5,-113.5 249.5,-113.5 "/>
<text text-anchor="start" x="162.5" y="-101.5" font-family="Helvetica,sans-Serif" font-size="10.00">+ Pause_State()</text>
</a>
</g>
</g>
<!-- Node2&#45;&gt;Node5 -->
<g id="edge4" class="edge">
<title>Node2&#45;&gt;Node5</title>
<path fill="none" stroke="midnightblue" d="M181.88,-178.85C185.5,-168.98 188.88,-159.77 191.8,-151.81"/>
<polygon fill="none" stroke="midnightblue" points="178.51,-177.89 178.35,-188.48 185.08,-180.3 178.51,-177.89"/>
</g>
<!-- Node4 -->
<g id="node4" class="node">
<title>Node4</title>
<g id="a_node4"><a xlink:href="classGame__Complete__State.html" target="_top" xlink:title=" ">
<polygon fill="white" stroke="black" points="0,-0.5 0,-57.5 148,-57.5 148,-0.5 0,-0.5"/>
<text text-anchor="middle" x="74" y="-45.5" font-family="Helvetica,sans-Serif" font-size="10.00">Game_Complete_State</text>
<polyline fill="none" stroke="black" points="0,-38.5 148,-38.5 "/>
<text text-anchor="middle" x="74" y="-26.5" font-family="Helvetica,sans-Serif" font-size="10.00"> </text>
<polyline fill="none" stroke="black" points="0,-19.5 148,-19.5 "/>
<text text-anchor="start" x="8" y="-7.5" font-family="Helvetica,sans-Serif" font-size="10.00">+ Game_Complete_State()</text>
</a>
</g>
</g>
<!-- Node3&#45;&gt;Node4 -->
<g id="edge3" class="edge">
<title>Node3&#45;&gt;Node4</title>
<path fill="none" stroke="midnightblue" d="M74,-84.21C74,-75.29 74,-65.95 74,-57.58"/>
<polygon fill="none" stroke="midnightblue" points="70.5,-84.4 74,-94.4 77.5,-84.4 70.5,-84.4"/>
</g>
</g>
</svg>
