<?xml version="1.0" encoding="UTF-8" standalone="no"?>
<!DOCTYPE svg PUBLIC "-//W3C//DTD SVG 1.1//EN"
 "http://www.w3.org/Graphics/SVG/1.1/DTD/svg11.dtd">
<!-- Generated by graphviz version 2.43.0 (0)
 -->
<!-- Title: Menu_State::Menu_State Pages: 1 -->
<svg width="476pt" height="78pt"
 viewBox="0.00 0.00 476.00 77.50" xmlns="http://www.w3.org/2000/svg" xmlns:xlink="http://www.w3.org/1999/xlink">
<g id="graph0" class="graph" transform="scale(1 1) rotate(0) translate(4 73.5)">
<title>Menu_State::Menu_State</title>
<polygon fill="white" stroke="transparent" points="-4,4 -4,-73.5 472,-73.5 472,4 -4,4"/>
<!-- Node1 -->
<g id="node1" class="node">
<title>Node1</title>
<g id="a_node1"><a xlink:title=" ">
<polygon fill="#bfbfbf" stroke="black" points="0,-22.5 0,-41.5 138,-41.5 138,-22.5 0,-22.5"/>
<text text-anchor="middle" x="69" y="-29.5" font-family="Helvetica,sans-Serif" font-size="10.00">Menu_State::Menu_State</text>
</a>
</g>
</g>
<!-- Node2 -->
<g id="node2" class="node">
<title>Node2</title>
<g id="a_node2"><a xlink:href="classTexture__Manager.html#ae05ae790408430ee660dd0ec218f82d4" target="_top" xlink:title=" ">
<polygon fill="white" stroke="black" points="174,-39 174,-69 296,-69 296,-39 174,-39"/>
<text text-anchor="start" x="182" y="-57" font-family="Helvetica,sans-Serif" font-size="10.00">Texture_Manager::get</text>
<text text-anchor="middle" x="235" y="-46" font-family="Helvetica,sans-Serif" font-size="10.00">_texture</text>
</a>
</g>
</g>
<!-- Node1&#45;&gt;Node2 -->
<g id="edge1" class="edge">
<title>Node1&#45;&gt;Node2</title>
<path fill="none" stroke="midnightblue" d="M138.13,-41.14C146.67,-42.28 155.41,-43.46 163.98,-44.61"/>
<polygon fill="midnightblue" stroke="midnightblue" points="163.56,-48.08 173.93,-45.94 164.49,-41.14 163.56,-48.08"/>
</g>
<!-- Node3 -->
<g id="node3" class="node">
<title>Node3</title>
<g id="a_node3"><a xlink:href="classMenu__State.html#aafa3e6183041668d7c8365d07840b293" target="_top" xlink:title=" ">
<polygon fill="white" stroke="black" points="174.5,-0.5 174.5,-19.5 295.5,-19.5 295.5,-0.5 174.5,-0.5"/>
<text text-anchor="middle" x="235" y="-7.5" font-family="Helvetica,sans-Serif" font-size="10.00">Menu_State::init_text</text>
</a>
</g>
</g>
<!-- Node1&#45;&gt;Node3 -->
<g id="edge2" class="edge">
<title>Node1&#45;&gt;Node3</title>
<path fill="none" stroke="midnightblue" d="M138.13,-22.86C146.79,-21.7 155.67,-20.51 164.36,-19.34"/>
<polygon fill="midnightblue" stroke="midnightblue" points="165,-22.79 174.45,-17.99 164.07,-15.85 165,-22.79"/>
</g>
<!-- Node4 -->
<g id="node4" class="node">
<title>Node4</title>
<g id="a_node4"><a xlink:href="classMenu__State.html#aab3d596df3881aef94bc26666e58f9dd" target="_top" xlink:title=" ">
<polygon fill="white" stroke="black" points="332,-0.5 332,-19.5 468,-19.5 468,-0.5 332,-0.5"/>
<text text-anchor="middle" x="400" y="-7.5" font-family="Helvetica,sans-Serif" font-size="10.00">Menu_State::create_text</text>
</a>
</g>
</g>
<!-- Node3&#45;&gt;Node4 -->
<g id="edge3" class="edge">
<title>Node3&#45;&gt;Node4</title>
<path fill="none" stroke="midnightblue" d="M295.77,-10C304.19,-10 312.95,-10 321.65,-10"/>
<polygon fill="midnightblue" stroke="midnightblue" points="321.8,-13.5 331.8,-10 321.8,-6.5 321.8,-13.5"/>
</g>
</g>
</svg>
