<?xml version="1.0" encoding="UTF-8" standalone="no"?>
<!DOCTYPE svg PUBLIC "-//W3C//DTD SVG 1.1//EN"
 "http://www.w3.org/Graphics/SVG/1.1/DTD/svg11.dtd">
<!-- Generated by graphviz version 2.43.0 (0)
 -->
<!-- Title: Texture_Manager::get_texture Pages: 1 -->
<!--zoomable 792 -->
<svg id="main" version="1.1" xmlns="http://www.w3.org/2000/svg" xmlns:xlink="http://www.w3.org/1999/xlink" xml:space="preserve" onload="init(evt)">
<style type="text/css"><![CDATA[
.edge:hover path { stroke: red; }
.edge:hover polygon { stroke: red; fill: red; }
]]></style>
<script type="text/javascript"><![CDATA[
var edges = document.getElementsByTagName('g');
if (edges && edges.length) {
  for (var i=0;i<edges.length;i++) {
    if (edges[i].id.substr(0,4)=='edge') {
      edges[i].setAttribute('class','edge');
    }
  }
}
]]></script>
        <defs>
                <circle id="rim" cx="0" cy="0" r="7"/>
                <circle id="rim2" cx="0" cy="0" r="3.5"/>
                <g id="zoomPlus">
                        <use xlink:href="#rim" fill="#404040">
                                <set attributeName="fill" to="#808080" begin="zoomplus.mouseover" end="zoomplus.mouseout"/>
                        </use>
                        <path d="M-4,0h8M0,-4v8" fill="none" stroke="white" stroke-width="1.5" pointer-events="none"/>
                </g>
                <g id="zoomMin">
                        <use xlink:href="#rim" fill="#404040">
                                <set attributeName="fill" to="#808080" begin="zoomminus.mouseover" end="zoomminus.mouseout"/>
                        </use>
                        <path d="M-4,0h8" fill="none" stroke="white" stroke-width="1.5" pointer-events="none"/>
                </g>
                <g id="dirArrow">
                        <path fill="none" stroke="white" stroke-width="1.5" d="M0,-3.0v7 M-2.5,-0.5L0,-3.0L2.5,-0.5"/>
                </g>
               <g id="resetDef">
                       <use xlink:href="#rim2" fill="#404040">
                               <set attributeName="fill" to="#808080" begin="reset.mouseover" end="reset.mouseout"/>
                       </use>
               </g>
        </defs>

<script type="text/javascript">
var viewWidth = 306;
var viewHeight = 792;
var sectionId = 'dynsection-1';
</script>
<script xlink:href="svgpan.js"/>
<svg id="graph" class="graph">
<g id="viewport">
<title>Texture_Manager::get_texture</title>
<polygon fill="white" stroke="transparent" points="-4,4 -4,-788 302,-788 302,4 -4,4"/>
<!-- Node1 -->
<g id="node1" class="node">
<title>Node1</title>
<g id="a_node1"><a xlink:title=" ">
<polygon fill="#bfbfbf" stroke="black" points="176,-394 176,-424 298,-424 298,-394 176,-394"/>
<text text-anchor="start" x="184" y="-412" font-family="Helvetica,sans-Serif" font-size="10.00">Texture_Manager::get</text>
<text text-anchor="middle" x="237" y="-401" font-family="Helvetica,sans-Serif" font-size="10.00">_texture</text>
</a>
</g>
</g>
<!-- Node2 -->
<g id="node2" class="node">
<title>Node2</title>
<g id="a_node2"><a xlink:href="classBouncer.html#a6951fd6163a43a049d10311bbec757f3" target="_top" xlink:title=" ">
<polygon fill="white" stroke="black" points="19,-764.5 19,-783.5 121,-783.5 121,-764.5 19,-764.5"/>
<text text-anchor="middle" x="70" y="-771.5" font-family="Helvetica,sans-Serif" font-size="10.00">Bouncer::Bouncer</text>
</a>
</g>
</g>
<!-- Node1&#45;&gt;Node2 -->
<g id="edge1" class="edge">
<title>Node1&#45;&gt;Node2</title>
<path fill="none" stroke="midnightblue" d="M236.87,-434.69C237.55,-498.4 230.12,-665.06 140,-755 134.72,-760.27 128.13,-764.11 121.13,-766.9"/>
<polygon fill="midnightblue" stroke="midnightblue" points="240.36,-434.29 236.67,-424.36 233.36,-434.42 240.36,-434.29"/>
</g>
<!-- Node3 -->
<g id="node3" class="node">
<title>Node3</title>
<g id="a_node3"><a xlink:href="classBridge.html#a3b101c8624bf4649a10a66f903cbf606" target="_top" xlink:title=" ">
<polygon fill="white" stroke="black" points="27,-726.5 27,-745.5 113,-745.5 113,-726.5 27,-726.5"/>
<text text-anchor="middle" x="70" y="-733.5" font-family="Helvetica,sans-Serif" font-size="10.00">Bridge::Bridge</text>
</a>
</g>
</g>
<!-- Node1&#45;&gt;Node3 -->
<g id="edge2" class="edge">
<title>Node1&#45;&gt;Node3</title>
<path fill="none" stroke="midnightblue" d="M235.83,-434.26C234.02,-492.76 221.13,-638.54 140,-717 132.68,-724.08 122.96,-728.58 113.15,-731.42"/>
<polygon fill="midnightblue" stroke="midnightblue" points="239.33,-434.15 236.06,-424.07 232.34,-433.99 239.33,-434.15"/>
</g>
<!-- Node4 -->
<g id="node4" class="node">
<title>Node4</title>
<g id="a_node4"><a xlink:href="classCheckpoint.html#a7894c1c875013b4569cface4e997edee" target="_top" xlink:title=" ">
<polygon fill="white" stroke="black" points="4,-688.5 4,-707.5 136,-707.5 136,-688.5 4,-688.5"/>
<text text-anchor="middle" x="70" y="-695.5" font-family="Helvetica,sans-Serif" font-size="10.00">Checkpoint::Checkpoint</text>
</a>
</g>
</g>
<!-- Node1&#45;&gt;Node4 -->
<g id="edge3" class="edge">
<title>Node1&#45;&gt;Node4</title>
<path fill="none" stroke="midnightblue" d="M234.52,-434.41C230.02,-487.78 211.95,-612.12 140,-679 135.81,-682.89 130.9,-686 125.67,-688.48"/>
<polygon fill="midnightblue" stroke="midnightblue" points="238.03,-434.38 235.29,-424.14 231.05,-433.86 238.03,-434.38"/>
</g>
<!-- Node5 -->
<g id="node5" class="node">
<title>Node5</title>
<g id="a_node5"><a xlink:href="classDoor.html#a4a7ead3bf060b8f04bf4cc0dad3b8164" target="_top" xlink:title=" ">
<polygon fill="white" stroke="black" points="35.5,-650.5 35.5,-669.5 104.5,-669.5 104.5,-650.5 35.5,-650.5"/>
<text text-anchor="middle" x="70" y="-657.5" font-family="Helvetica,sans-Serif" font-size="10.00">Door::Door</text>
</a>
</g>
</g>
<!-- Node1&#45;&gt;Node5 -->
<g id="edge4" class="edge">
<title>Node1&#45;&gt;Node5</title>
<path fill="none" stroke="midnightblue" d="M232.87,-434.14C225.59,-481.76 203.04,-585.31 140,-641 130.32,-649.56 117.11,-654.3 104.85,-656.91"/>
<polygon fill="midnightblue" stroke="midnightblue" points="236.36,-434.47 234.31,-424.08 229.43,-433.48 236.36,-434.47"/>
</g>
<!-- Node6 -->
<g id="node6" class="node">
<title>Node6</title>
<g id="a_node6"><a xlink:href="classEnemy.html#a0e3ad09de3d7cc19e5f01dd4d9424ee8" target="_top" xlink:title=" ">
<polygon fill="white" stroke="black" points="25.5,-612.5 25.5,-631.5 114.5,-631.5 114.5,-612.5 25.5,-612.5"/>
<text text-anchor="middle" x="70" y="-619.5" font-family="Helvetica,sans-Serif" font-size="10.00">Enemy::Enemy</text>
</a>
</g>
</g>
<!-- Node1&#45;&gt;Node6 -->
<g id="edge5" class="edge">
<title>Node1&#45;&gt;Node6</title>
<path fill="none" stroke="midnightblue" d="M230.61,-434.11C220.37,-475.6 194.12,-558.33 140,-603 132.72,-609.01 123.68,-613.13 114.57,-615.94"/>
<polygon fill="midnightblue" stroke="midnightblue" points="234.04,-434.79 232.92,-424.26 227.23,-433.19 234.04,-434.79"/>
</g>
<!-- Node7 -->
<g id="node7" class="node">
<title>Node7</title>
<g id="a_node7"><a xlink:href="classFan.html#aaaca4098579948f6788e196ffd4197e4" target="_top" xlink:title=" ">
<polygon fill="white" stroke="black" points="42,-574.5 42,-593.5 98,-593.5 98,-574.5 42,-574.5"/>
<text text-anchor="middle" x="70" y="-581.5" font-family="Helvetica,sans-Serif" font-size="10.00">Fan::Fan</text>
</a>
</g>
</g>
<!-- Node1&#45;&gt;Node7 -->
<g id="edge6" class="edge">
<title>Node1&#45;&gt;Node7</title>
<path fill="none" stroke="midnightblue" d="M227.42,-433.85C214.17,-468.5 185.41,-530.92 140,-565 127.98,-574.03 111.9,-578.76 98.3,-581.25"/>
<polygon fill="midnightblue" stroke="midnightblue" points="230.86,-434.64 231.04,-424.05 224.29,-432.22 230.86,-434.64"/>
</g>
<!-- Node8 -->
<g id="node8" class="node">
<title>Node8</title>
<g id="a_node8"><a xlink:href="classFlamer.html#a039af33f6a1c3294886fd03fbee8cbeb" target="_top" xlink:title=" ">
<polygon fill="white" stroke="black" points="24,-536.5 24,-555.5 116,-555.5 116,-536.5 24,-536.5"/>
<text text-anchor="middle" x="70" y="-543.5" font-family="Helvetica,sans-Serif" font-size="10.00">Flamer::Flamer</text>
</a>
</g>
</g>
<!-- Node1&#45;&gt;Node8 -->
<g id="edge7" class="edge">
<title>Node1&#45;&gt;Node8</title>
<path fill="none" stroke="midnightblue" d="M222.73,-432.99C206.63,-459.88 176.99,-502.85 140,-527 132.82,-531.69 124.5,-535.23 116.17,-537.9"/>
<polygon fill="midnightblue" stroke="midnightblue" points="225.84,-434.61 227.85,-424.21 219.79,-431.09 225.84,-434.61"/>
</g>
<!-- Node9 -->
<g id="node9" class="node">
<title>Node9</title>
<g id="a_node9"><a xlink:href="classGame__Over__State.html#ad6f386e861456d99598f476e632c227d" target="_top" xlink:title=" ">
<polygon fill="white" stroke="black" points="0,-487 0,-517 140,-517 140,-487 0,-487"/>
<text text-anchor="start" x="8" y="-505" font-family="Helvetica,sans-Serif" font-size="10.00">Game_Over_State::Game</text>
<text text-anchor="middle" x="70" y="-494" font-family="Helvetica,sans-Serif" font-size="10.00">_Over_State</text>
</a>
</g>
</g>
<!-- Node1&#45;&gt;Node9 -->
<g id="edge8" class="edge">
<title>Node1&#45;&gt;Node9</title>
<path fill="none" stroke="midnightblue" d="M210.29,-430.63C191.68,-445.47 165.43,-464.79 140,-478 133.7,-481.27 126.85,-484.26 120,-486.94"/>
<polygon fill="midnightblue" stroke="midnightblue" points="212.7,-433.18 218.27,-424.16 208.29,-427.74 212.7,-433.18"/>
</g>
<!-- Node10 -->
<g id="node10" class="node">
<title>Node10</title>
<g id="a_node10"><a xlink:href="classHarmful__Block.html#a626059ac98ba44fda2a8532646f138f1" target="_top" xlink:title=" ">
<polygon fill="white" stroke="black" points="3,-438 3,-468 137,-468 137,-438 3,-438"/>
<text text-anchor="start" x="11" y="-456" font-family="Helvetica,sans-Serif" font-size="10.00">Harmful_Block::Harmful</text>
<text text-anchor="middle" x="70" y="-445" font-family="Helvetica,sans-Serif" font-size="10.00">_Block</text>
</a>
</g>
</g>
<!-- Node1&#45;&gt;Node10 -->
<g id="edge9" class="edge">
<title>Node1&#45;&gt;Node10</title>
<path fill="none" stroke="midnightblue" d="M169.61,-426.7C155.6,-430.44 140.95,-434.35 127.35,-437.97"/>
<polygon fill="midnightblue" stroke="midnightblue" points="170.92,-429.98 179.68,-424.02 169.11,-423.21 170.92,-429.98"/>
</g>
<!-- Node11 -->
<g id="node11" class="node">
<title>Node11</title>
<g id="a_node11"><a xlink:href="classHealthpack.html#a1e52c70622e0be1d34a02d4a3ca5366d" target="_top" xlink:title=" ">
<polygon fill="white" stroke="black" points="3,-399.5 3,-418.5 137,-418.5 137,-399.5 3,-399.5"/>
<text text-anchor="middle" x="70" y="-406.5" font-family="Helvetica,sans-Serif" font-size="10.00">Healthpack::Healthpack</text>
</a>
</g>
</g>
<!-- Node1&#45;&gt;Node11 -->
<g id="edge10" class="edge">
<title>Node1&#45;&gt;Node11</title>
<path fill="none" stroke="midnightblue" d="M165.77,-409C156.27,-409 146.55,-409 137.12,-409"/>
<polygon fill="midnightblue" stroke="midnightblue" points="165.96,-412.5 175.96,-409 165.96,-405.5 165.96,-412.5"/>
</g>
<!-- Node12 -->
<g id="node12" class="node">
<title>Node12</title>
<g id="a_node12"><a xlink:href="classLauncher.html#a664daeb4c33b7ffea5c7d62afef74d08" target="_top" xlink:title=" ">
<polygon fill="white" stroke="black" points="14.5,-361.5 14.5,-380.5 125.5,-380.5 125.5,-361.5 14.5,-361.5"/>
<text text-anchor="middle" x="70" y="-368.5" font-family="Helvetica,sans-Serif" font-size="10.00">Launcher::Launcher</text>
</a>
</g>
</g>
<!-- Node1&#45;&gt;Node12 -->
<g id="edge11" class="edge">
<title>Node1&#45;&gt;Node12</title>
<path fill="none" stroke="midnightblue" d="M166.19,-392.92C147.88,-388.71 128.71,-384.29 112.41,-380.54"/>
<polygon fill="midnightblue" stroke="midnightblue" points="165.43,-396.34 175.96,-395.17 167.01,-389.52 165.43,-396.34"/>
</g>
<!-- Node13 -->
<g id="node13" class="node">
<title>Node13</title>
<g id="a_node13"><a xlink:href="classMenu__State.html#abcb7829ec9a970e44efa5c235e988cfb" target="_top" xlink:title=" ">
<polygon fill="white" stroke="black" points="1,-323.5 1,-342.5 139,-342.5 139,-323.5 1,-323.5"/>
<text text-anchor="middle" x="70" y="-330.5" font-family="Helvetica,sans-Serif" font-size="10.00">Menu_State::Menu_State</text>
</a>
</g>
</g>
<!-- Node1&#45;&gt;Node13 -->
<g id="edge12" class="edge">
<title>Node1&#45;&gt;Node13</title>
<path fill="none" stroke="midnightblue" d="M205.88,-388.27C187.49,-376.36 163.14,-361.85 140,-352 131.43,-348.35 121.95,-345.21 112.84,-342.59"/>
<polygon fill="midnightblue" stroke="midnightblue" points="204.11,-391.3 214.39,-393.88 207.97,-385.46 204.11,-391.3"/>
</g>
<!-- Node14 -->
<g id="node14" class="node">
<title>Node14</title>
<g id="a_node14"><a xlink:href="classMoving__Block.html#abf2b58dfa5e2557008f6b057e9ea74c7" target="_top" xlink:title=" ">
<polygon fill="white" stroke="black" points="6.5,-274 6.5,-304 133.5,-304 133.5,-274 6.5,-274"/>
<text text-anchor="start" x="14.5" y="-292" font-family="Helvetica,sans-Serif" font-size="10.00">Moving_Block::Moving</text>
<text text-anchor="middle" x="70" y="-281" font-family="Helvetica,sans-Serif" font-size="10.00">_Block</text>
</a>
</g>
</g>
<!-- Node1&#45;&gt;Node14 -->
<g id="edge13" class="edge">
<title>Node1&#45;&gt;Node14</title>
<path fill="none" stroke="midnightblue" d="M217.74,-385.89C199.9,-364.65 170.97,-333.58 140,-314 134.08,-310.25 127.51,-306.96 120.86,-304.11"/>
<polygon fill="midnightblue" stroke="midnightblue" points="215.18,-388.29 224.24,-393.78 220.58,-383.84 215.18,-388.29"/>
</g>
<!-- Node15 -->
<g id="node15" class="node">
<title>Node15</title>
<g id="a_node15"><a xlink:href="classPause__State.html#a563f83c0168f5698f09dc627634bbe14" target="_top" xlink:title=" ">
<polygon fill="white" stroke="black" points="15,-225 15,-255 125,-255 125,-225 15,-225"/>
<text text-anchor="start" x="23" y="-243" font-family="Helvetica,sans-Serif" font-size="10.00">Pause_State::Pause</text>
<text text-anchor="middle" x="70" y="-232" font-family="Helvetica,sans-Serif" font-size="10.00">_State</text>
</a>
</g>
</g>
<!-- Node1&#45;&gt;Node15 -->
<g id="edge14" class="edge">
<title>Node1&#45;&gt;Node15</title>
<path fill="none" stroke="midnightblue" d="M225.46,-384.16C210.75,-352.29 181.17,-297.3 140,-265 135.09,-261.15 129.53,-257.85 123.75,-255.04"/>
<polygon fill="midnightblue" stroke="midnightblue" points="222.42,-385.94 229.71,-393.63 228.81,-383.08 222.42,-385.94"/>
</g>
<!-- Node16 -->
<g id="node16" class="node">
<title>Node16</title>
<g id="a_node16"><a xlink:href="classPlayer.html#a4c481b6493f9e0d550377c0d99763c82" target="_top" xlink:title=" ">
<polygon fill="white" stroke="black" points="28,-186.5 28,-205.5 112,-205.5 112,-186.5 28,-186.5"/>
<text text-anchor="middle" x="70" y="-193.5" font-family="Helvetica,sans-Serif" font-size="10.00">Player::Player</text>
</a>
</g>
</g>
<!-- Node1&#45;&gt;Node16 -->
<g id="edge15" class="edge">
<title>Node1&#45;&gt;Node16</title>
<path fill="none" stroke="midnightblue" d="M230.5,-384.1C220.11,-342.93 193.65,-260.79 140,-216 132.05,-209.37 122.01,-204.93 112.06,-201.97"/>
<polygon fill="midnightblue" stroke="midnightblue" points="227.11,-384.97 232.86,-393.87 233.92,-383.33 227.11,-384.97"/>
</g>
<!-- Node17 -->
<g id="node17" class="node">
<title>Node17</title>
<g id="a_node17"><a xlink:href="classProlog__State.html#a3b1fee79c115f4ab50fc718ca134fedf" target="_top" xlink:title=" ">
<polygon fill="white" stroke="black" points="12.5,-137 12.5,-167 127.5,-167 127.5,-137 12.5,-137"/>
<text text-anchor="start" x="20.5" y="-155" font-family="Helvetica,sans-Serif" font-size="10.00">Prolog_State::Prolog</text>
<text text-anchor="middle" x="70" y="-144" font-family="Helvetica,sans-Serif" font-size="10.00">_State</text>
</a>
</g>
</g>
<!-- Node1&#45;&gt;Node17 -->
<g id="edge16" class="edge">
<title>Node1&#45;&gt;Node17</title>
<path fill="none" stroke="midnightblue" d="M232.41,-383.97C224.37,-336.96 200.65,-234.99 140,-177 135.95,-173.13 131.25,-169.84 126.25,-167.07"/>
<polygon fill="midnightblue" stroke="midnightblue" points="228.96,-384.59 234.01,-393.9 235.87,-383.48 228.96,-384.59"/>
</g>
<!-- Node18 -->
<g id="node18" class="node">
<title>Node18</title>
<g id="a_node18"><a xlink:href="classRolling__Stone.html#a5ef63bf6c426e487923c6a1f01e92073" target="_top" xlink:title=" ">
<polygon fill="white" stroke="black" points="8.5,-88 8.5,-118 131.5,-118 131.5,-88 8.5,-88"/>
<text text-anchor="start" x="16.5" y="-106" font-family="Helvetica,sans-Serif" font-size="10.00">Rolling_Stone::Rolling</text>
<text text-anchor="middle" x="70" y="-95" font-family="Helvetica,sans-Serif" font-size="10.00">_Stone</text>
</a>
</g>
</g>
<!-- Node1&#45;&gt;Node18 -->
<g id="edge17" class="edge">
<title>Node1&#45;&gt;Node18</title>
<path fill="none" stroke="midnightblue" d="M234.49,-383.76C229.89,-329.54 211.63,-200.96 140,-128 136.16,-124.09 131.67,-120.79 126.84,-118"/>
<polygon fill="midnightblue" stroke="midnightblue" points="231.01,-384.16 235.25,-393.86 237.99,-383.63 231.01,-384.16"/>
</g>
<!-- Node19 -->
<g id="node19" class="node">
<title>Node19</title>
<g id="a_node19"><a xlink:href="classSolid__Block.html#a746b2ab2e140c1c487cb7cae3a9b7fda" target="_top" xlink:title=" ">
<polygon fill="white" stroke="black" points="18.5,-39 18.5,-69 121.5,-69 121.5,-39 18.5,-39"/>
<text text-anchor="start" x="26.5" y="-57" font-family="Helvetica,sans-Serif" font-size="10.00">Solid_Block::Solid</text>
<text text-anchor="middle" x="70" y="-46" font-family="Helvetica,sans-Serif" font-size="10.00">_Block</text>
</a>
</g>
</g>
<!-- Node1&#45;&gt;Node19 -->
<g id="edge18" class="edge">
<title>Node1&#45;&gt;Node19</title>
<path fill="none" stroke="midnightblue" d="M236.01,-383.67C234.65,-322.9 222.79,-167.31 140,-79 134.86,-73.52 128.42,-69.23 121.56,-65.89"/>
<polygon fill="midnightblue" stroke="midnightblue" points="232.51,-383.93 236.16,-393.88 239.51,-383.83 232.51,-383.93"/>
</g>
<!-- Node20 -->
<g id="node20" class="node">
<title>Node20</title>
<g id="a_node20"><a xlink:href="classTreasure.html#a428adf80445245fb0420ecda89b2b2da" target="_top" xlink:title=" ">
<polygon fill="white" stroke="black" points="17.5,-0.5 17.5,-19.5 122.5,-19.5 122.5,-0.5 17.5,-0.5"/>
<text text-anchor="middle" x="70" y="-7.5" font-family="Helvetica,sans-Serif" font-size="10.00">Treasure::Treasure</text>
</a>
</g>
</g>
<!-- Node1&#45;&gt;Node20 -->
<g id="edge19" class="edge">
<title>Node1&#45;&gt;Node20</title>
<path fill="none" stroke="midnightblue" d="M232.84,-383.41C222.9,-306.83 189.91,-81.64 140,-30 135.15,-24.98 129.11,-21.2 122.65,-18.35"/>
<polygon fill="midnightblue" stroke="midnightblue" points="229.4,-384.11 234.14,-393.59 236.35,-383.22 229.4,-384.11"/>
</g>
</g>
</svg>
        <g id="navigator" transform="translate(0 0)" fill="#404254">
                <rect fill="#f2f5e9" fill-opacity="0.5" stroke="#606060" stroke-width=".5" x="0" y="0" width="60" height="60"/>
                <use id="zoomplus" xlink:href="#zoomPlus" x="17" y="9" onmousedown="handleZoom(evt,'in')"/>
                <use id="zoomminus" xlink:href="#zoomMin" x="42" y="9" onmousedown="handleZoom(evt,'out')"/>
                <use id="reset" xlink:href="#resetDef" x="30" y="36" onmousedown="handleReset()"/>
                <g id="arrowUp" xlink:href="#dirArrow" transform="translate(30 24)" onmousedown="handlePan(0,-1)">
                  <use xlink:href="#rim" fill="#404040">
                        <set attributeName="fill" to="#808080" begin="arrowUp.mouseover" end="arrowUp.mouseout"/>
                  </use>
                  <path fill="none" stroke="white" stroke-width="1.5" d="M0,-3.0v7 M-2.5,-0.5L0,-3.0L2.5,-0.5"/>
                </g>
                <g id="arrowRight" xlink:href="#dirArrow" transform="rotate(90) translate(36 -43)" onmousedown="handlePan(1,0)">
                  <use xlink:href="#rim" fill="#404040">
                        <set attributeName="fill" to="#808080" begin="arrowRight.mouseover" end="arrowRight.mouseout"/>
                  </use>
                  <path fill="none" stroke="white" stroke-width="1.5" d="M0,-3.0v7 M-2.5,-0.5L0,-3.0L2.5,-0.5"/>
                </g>
                <g id="arrowDown" xlink:href="#dirArrow" transform="rotate(180) translate(-30 -48)" onmousedown="handlePan(0,1)">
                  <use xlink:href="#rim" fill="#404040">
                        <set attributeName="fill" to="#808080" begin="arrowDown.mouseover" end="arrowDown.mouseout"/>
                  </use>
                  <path fill="none" stroke="white" stroke-width="1.5" d="M0,-3.0v7 M-2.5,-0.5L0,-3.0L2.5,-0.5"/>
                </g>
                <g id="arrowLeft" xlink:href="#dirArrow" transform="rotate(270) translate(-36 17)" onmousedown="handlePan(-1,0)">
                  <use xlink:href="#rim" fill="#404040">
                        <set attributeName="fill" to="#808080" begin="arrowLeft.mouseover" end="arrowLeft.mouseout"/>
                  </use>
                  <path fill="none" stroke="white" stroke-width="1.5" d="M0,-3.0v7 M-2.5,-0.5L0,-3.0L2.5,-0.5"/>
                </g>
        </g>
        <svg viewBox="0 0 15 15" width="100%" height="30px" preserveAspectRatio="xMaxYMin meet">
         <g id="arrow_out" transform="scale(0.3 0.3)">
          <a xlink:href="classTexture__Manager_ae05ae790408430ee660dd0ec218f82d4_icgraph_org.svg" target="_base">
           <rect id="button" ry="5" rx="5" y="6" x="6" height="38" width="38"
                fill="#f2f5e9" fill-opacity="0.5" stroke="#606060" stroke-width="1.0"/>
           <path id="arrow"
             d="M 11.500037,31.436501 C 11.940474,20.09759 22.043105,11.32322 32.158766,21.979434 L 37.068811,17.246167 C 37.068811,17.246167 37.088388,32 37.088388,32 L 22.160133,31.978069 C 22.160133,31.978069 26.997745,27.140456 26.997745,27.140456 C 18.528582,18.264221 13.291696,25.230495 11.500037,31.436501 z"
             style="fill:#404040;"/>
          </a>
         </g>
        </svg>
</svg>
