<?xml version="1.0" encoding="UTF-8" standalone="no"?>
<!DOCTYPE svg PUBLIC "-//W3C//DTD SVG 1.1//EN"
 "http://www.w3.org/Graphics/SVG/1.1/DTD/svg11.dtd">
<!-- Generated by graphviz version 2.43.0 (0)
 -->
<!-- Title: Game_Object Pages: 1 -->
<!--zoomable 1173 -->
<svg id="main" version="1.1" xmlns="http://www.w3.org/2000/svg" xmlns:xlink="http://www.w3.org/1999/xlink" xml:space="preserve" onload="init(evt)">
<style type="text/css"><![CDATA[
.edge:hover path { stroke: red; }
.edge:hover polygon { stroke: red; fill: red; }
]]></style>
<script type="text/javascript"><![CDATA[
var edges = document.getElementsByTagName('g');
if (edges && edges.length) {
  for (var i=0;i<edges.length;i++) {
    if (edges[i].id.substr(0,4)=='edge') {
      edges[i].setAttribute('class','edge');
    }
  }
}
]]></script>
        <defs>
                <circle id="rim" cx="0" cy="0" r="7"/>
                <circle id="rim2" cx="0" cy="0" r="3.5"/>
                <g id="zoomPlus">
                        <use xlink:href="#rim" fill="#404040">
                                <set attributeName="fill" to="#808080" begin="zoomplus.mouseover" end="zoomplus.mouseout"/>
                        </use>
                        <path d="M-4,0h8M0,-4v8" fill="none" stroke="white" stroke-width="1.5" pointer-events="none"/>
                </g>
                <g id="zoomMin">
                        <use xlink:href="#rim" fill="#404040">
                                <set attributeName="fill" to="#808080" begin="zoomminus.mouseover" end="zoomminus.mouseout"/>
                        </use>
                        <path d="M-4,0h8" fill="none" stroke="white" stroke-width="1.5" pointer-events="none"/>
                </g>
                <g id="dirArrow">
                        <path fill="none" stroke="white" stroke-width="1.5" d="M0,-3.0v7 M-2.5,-0.5L0,-3.0L2.5,-0.5"/>
                </g>
               <g id="resetDef">
                       <use xlink:href="#rim2" fill="#404040">
                               <set attributeName="fill" to="#808080" begin="reset.mouseover" end="reset.mouseout"/>
                       </use>
               </g>
        </defs>

<script type="text/javascript">
var viewWidth = 1581;
var viewHeight = 1173;
var sectionId = 'dynsection-0';
</script>
<script xlink:href="svgpan.js"/>
<svg id="graph" class="graph">
<g id="viewport">
<title>Game_Object</title>
<polygon fill="white" stroke="transparent" points="-4,4 -4,-1169 1577,-1169 1577,4 -4,4"/>
<!-- Node1 -->
<g id="node1" class="node">
<title>Node1</title>
<g id="a_node1"><a xlink:title=" ">
<polygon fill="#bfbfbf" stroke="black" points="679,-942.5 679,-1164.5 838,-1164.5 838,-942.5 679,-942.5"/>
<text text-anchor="middle" x="758.5" y="-1152.5" font-family="Helvetica,sans-Serif" font-size="10.00">Game_Object</text>
<polyline fill="none" stroke="black" points="679,-1145.5 838,-1145.5 "/>
<text text-anchor="start" x="687" y="-1133.5" font-family="Helvetica,sans-Serif" font-size="10.00"># sf::Vector2f position</text>
<text text-anchor="start" x="687" y="-1122.5" font-family="Helvetica,sans-Serif" font-size="10.00"># int width</text>
<text text-anchor="start" x="687" y="-1111.5" font-family="Helvetica,sans-Serif" font-size="10.00"># int height</text>
<text text-anchor="start" x="687" y="-1100.5" font-family="Helvetica,sans-Serif" font-size="10.00"># sf::Sprite sprite</text>
<polyline fill="none" stroke="black" points="679,-1093.5 838,-1093.5 "/>
<text text-anchor="start" x="687" y="-1081.5" font-family="Helvetica,sans-Serif" font-size="10.00">+ Game_Object(float</text>
<text text-anchor="start" x="687" y="-1070.5" font-family="Helvetica,sans-Serif" font-size="10.00"> x, float y, int w,</text>
<text text-anchor="start" x="687" y="-1059.5" font-family="Helvetica,sans-Serif" font-size="10.00"> int h)</text>
<text text-anchor="start" x="687" y="-1048.5" font-family="Helvetica,sans-Serif" font-size="10.00">+ virtual ~Game_Object</text>
<text text-anchor="start" x="687" y="-1037.5" font-family="Helvetica,sans-Serif" font-size="10.00">()=default</text>
<text text-anchor="start" x="687" y="-1026.5" font-family="Helvetica,sans-Serif" font-size="10.00">+ virtual void update()</text>
<text text-anchor="start" x="687" y="-1015.5" font-family="Helvetica,sans-Serif" font-size="10.00">+ virtual void render</text>
<text text-anchor="start" x="687" y="-1004.5" font-family="Helvetica,sans-Serif" font-size="10.00">(sf::RenderWindow &amp;window,</text>
<text text-anchor="start" x="687" y="-993.5" font-family="Helvetica,sans-Serif" font-size="10.00"> Camera &amp;camera)</text>
<text text-anchor="start" x="687" y="-982.5" font-family="Helvetica,sans-Serif" font-size="10.00">+ virtual sf::FloatRect</text>
<text text-anchor="start" x="687" y="-971.5" font-family="Helvetica,sans-Serif" font-size="10.00"> get_rect() const</text>
<text text-anchor="start" x="687" y="-960.5" font-family="Helvetica,sans-Serif" font-size="10.00">+ sf::Vector2f get_position</text>
<text text-anchor="start" x="687" y="-949.5" font-family="Helvetica,sans-Serif" font-size="10.00">() const</text>
</a>
</g>
</g>
<!-- Node2 -->
<g id="node2" class="node">
<title>Node2</title>
<g id="a_node2"><a xlink:href="classBouncer.html" target="_top" xlink:title=" ">
<polygon fill="white" stroke="black" points="0,-634 0,-746 143,-746 143,-634 0,-634"/>
<text text-anchor="middle" x="71.5" y="-734" font-family="Helvetica,sans-Serif" font-size="10.00">Bouncer</text>
<polyline fill="none" stroke="black" points="0,-727 143,-727 "/>
<text text-anchor="middle" x="71.5" y="-715" font-family="Helvetica,sans-Serif" font-size="10.00"> </text>
<polyline fill="none" stroke="black" points="0,-708 143,-708 "/>
<text text-anchor="start" x="8" y="-696" font-family="Helvetica,sans-Serif" font-size="10.00">+ Bouncer(float x, float y)</text>
<text text-anchor="start" x="8" y="-685" font-family="Helvetica,sans-Serif" font-size="10.00">+ void update() override</text>
<text text-anchor="start" x="8" y="-674" font-family="Helvetica,sans-Serif" font-size="10.00">+ void bounce()</text>
<text text-anchor="start" x="8" y="-663" font-family="Helvetica,sans-Serif" font-size="10.00">+ float get_force() const</text>
<text text-anchor="start" x="8" y="-652" font-family="Helvetica,sans-Serif" font-size="10.00">+ sf::FloatRect get_rect</text>
<text text-anchor="start" x="8" y="-641" font-family="Helvetica,sans-Serif" font-size="10.00">() const override</text>
</a>
</g>
</g>
<!-- Node1&#45;&gt;Node2 -->
<g id="edge1" class="edge">
<title>Node1&#45;&gt;Node2</title>
<path fill="none" stroke="midnightblue" d="M668.74,-1041.27C519.14,-1020.9 227.7,-973.6 151.5,-906 105.47,-865.16 85.86,-795.31 77.55,-746.33"/>
<polygon fill="none" stroke="midnightblue" points="668.45,-1044.77 678.82,-1042.64 669.38,-1037.83 668.45,-1044.77"/>
</g>
<!-- Node3 -->
<g id="node3" class="node">
<title>Node3</title>
<g id="a_node3"><a xlink:href="classCheckpoint.html" target="_top" xlink:title=" ">
<polygon fill="white" stroke="black" points="161,-645 161,-735 302,-735 302,-645 161,-645"/>
<text text-anchor="middle" x="231.5" y="-723" font-family="Helvetica,sans-Serif" font-size="10.00">Checkpoint</text>
<polyline fill="none" stroke="black" points="161,-716 302,-716 "/>
<text text-anchor="middle" x="231.5" y="-704" font-family="Helvetica,sans-Serif" font-size="10.00"> </text>
<polyline fill="none" stroke="black" points="161,-697 302,-697 "/>
<text text-anchor="start" x="169" y="-685" font-family="Helvetica,sans-Serif" font-size="10.00">+ Checkpoint(float x,</text>
<text text-anchor="start" x="169" y="-674" font-family="Helvetica,sans-Serif" font-size="10.00"> float y)</text>
<text text-anchor="start" x="169" y="-663" font-family="Helvetica,sans-Serif" font-size="10.00">+ bool is_reached() const</text>
<text text-anchor="start" x="169" y="-652" font-family="Helvetica,sans-Serif" font-size="10.00">+ void touchdown()</text>
</a>
</g>
</g>
<!-- Node1&#45;&gt;Node3 -->
<g id="edge2" class="edge">
<title>Node1&#45;&gt;Node3</title>
<path fill="none" stroke="midnightblue" d="M668.53,-1045.99C568.64,-1034.12 408.58,-1000.61 310.5,-906 262.99,-860.17 243.88,-783.38 236.31,-735.04"/>
<polygon fill="none" stroke="midnightblue" points="668.27,-1049.49 678.6,-1047.14 669.06,-1042.53 668.27,-1049.49"/>
</g>
<!-- Node4 -->
<g id="node4" class="node">
<title>Node4</title>
<g id="a_node4"><a xlink:href="classDoor.html" target="_top" xlink:title=" ">
<polygon fill="white" stroke="black" points="320,-656 320,-724 433,-724 433,-656 320,-656"/>
<text text-anchor="middle" x="376.5" y="-712" font-family="Helvetica,sans-Serif" font-size="10.00">Door</text>
<polyline fill="none" stroke="black" points="320,-705 433,-705 "/>
<text text-anchor="middle" x="376.5" y="-693" font-family="Helvetica,sans-Serif" font-size="10.00"> </text>
<polyline fill="none" stroke="black" points="320,-686 433,-686 "/>
<text text-anchor="start" x="328" y="-674" font-family="Helvetica,sans-Serif" font-size="10.00">+ Door(float x, float</text>
<text text-anchor="start" x="328" y="-663" font-family="Helvetica,sans-Serif" font-size="10.00"> y, int level)</text>
</a>
</g>
</g>
<!-- Node1&#45;&gt;Node4 -->
<g id="edge3" class="edge">
<title>Node1&#45;&gt;Node4</title>
<path fill="none" stroke="midnightblue" d="M669.02,-1032.64C597.8,-1012.36 500.58,-973.95 441.5,-906 395.95,-853.62 382.32,-770.14 378.24,-724.13"/>
<polygon fill="none" stroke="midnightblue" points="668.32,-1036.08 678.9,-1035.39 670.2,-1029.34 668.32,-1036.08"/>
</g>
<!-- Node5 -->
<g id="node5" class="node">
<title>Node5</title>
<g id="a_node5"><a xlink:href="classFlamer.html" target="_top" xlink:title=" ">
<polygon fill="white" stroke="black" points="451,-639.5 451,-740.5 590,-740.5 590,-639.5 451,-639.5"/>
<text text-anchor="middle" x="520.5" y="-728.5" font-family="Helvetica,sans-Serif" font-size="10.00">Flamer</text>
<polyline fill="none" stroke="black" points="451,-721.5 590,-721.5 "/>
<text text-anchor="middle" x="520.5" y="-709.5" font-family="Helvetica,sans-Serif" font-size="10.00"> </text>
<polyline fill="none" stroke="black" points="451,-702.5 590,-702.5 "/>
<text text-anchor="start" x="459" y="-690.5" font-family="Helvetica,sans-Serif" font-size="10.00">+ Flamer(float x, float y)</text>
<text text-anchor="start" x="459" y="-679.5" font-family="Helvetica,sans-Serif" font-size="10.00">+ void update() override</text>
<text text-anchor="start" x="459" y="-668.5" font-family="Helvetica,sans-Serif" font-size="10.00">+ bool is_flaming() const</text>
<text text-anchor="start" x="459" y="-657.5" font-family="Helvetica,sans-Serif" font-size="10.00">+ sf::FloatRect get_rect</text>
<text text-anchor="start" x="459" y="-646.5" font-family="Helvetica,sans-Serif" font-size="10.00">() const override</text>
</a>
</g>
</g>
<!-- Node1&#45;&gt;Node5 -->
<g id="edge4" class="edge">
<title>Node1&#45;&gt;Node5</title>
<path fill="none" stroke="midnightblue" d="M671.16,-986.27C645.07,-963.13 618.2,-935.51 598.5,-906 564.21,-854.65 542.8,-786.36 531.27,-740.65"/>
<polygon fill="none" stroke="midnightblue" points="669.02,-989.05 678.86,-992.99 673.62,-983.78 669.02,-989.05"/>
</g>
<!-- Node6 -->
<g id="node6" class="node">
<title>Node6</title>
<g id="a_node6"><a xlink:href="classHarmful__Block.html" target="_top" xlink:title=" ">
<polygon fill="white" stroke="black" points="608,-639.5 608,-740.5 739,-740.5 739,-639.5 608,-639.5"/>
<text text-anchor="middle" x="673.5" y="-728.5" font-family="Helvetica,sans-Serif" font-size="10.00">Harmful_Block</text>
<polyline fill="none" stroke="black" points="608,-721.5 739,-721.5 "/>
<text text-anchor="middle" x="673.5" y="-709.5" font-family="Helvetica,sans-Serif" font-size="10.00"> </text>
<polyline fill="none" stroke="black" points="608,-702.5 739,-702.5 "/>
<text text-anchor="start" x="616" y="-690.5" font-family="Helvetica,sans-Serif" font-size="10.00">+ Harmful_Block(float</text>
<text text-anchor="start" x="616" y="-679.5" font-family="Helvetica,sans-Serif" font-size="10.00"> x, float y, int level,</text>
<text text-anchor="start" x="616" y="-668.5" font-family="Helvetica,sans-Serif" font-size="10.00"> char c)</text>
<text text-anchor="start" x="616" y="-657.5" font-family="Helvetica,sans-Serif" font-size="10.00">+ sf::FloatRect get_rect</text>
<text text-anchor="start" x="616" y="-646.5" font-family="Helvetica,sans-Serif" font-size="10.00">() const override</text>
</a>
</g>
</g>
<!-- Node1&#45;&gt;Node6 -->
<g id="edge5" class="edge">
<title>Node1&#45;&gt;Node6</title>
<path fill="none" stroke="midnightblue" d="M730.2,-932.15C714.89,-867.04 696.8,-790.11 685.25,-740.96"/>
<polygon fill="none" stroke="midnightblue" points="726.84,-933.14 732.54,-942.07 733.65,-931.54 726.84,-933.14"/>
</g>
<!-- Node7 -->
<g id="node7" class="node">
<title>Node7</title>
<g id="a_node7"><a xlink:href="classHealthpack.html" target="_top" xlink:title=" ">
<polygon fill="white" stroke="black" points="757,-623 757,-757 932,-757 932,-623 757,-623"/>
<text text-anchor="middle" x="844.5" y="-745" font-family="Helvetica,sans-Serif" font-size="10.00">Healthpack</text>
<polyline fill="none" stroke="black" points="757,-738 932,-738 "/>
<text text-anchor="middle" x="844.5" y="-726" font-family="Helvetica,sans-Serif" font-size="10.00"> </text>
<polyline fill="none" stroke="black" points="757,-719 932,-719 "/>
<text text-anchor="start" x="765" y="-707" font-family="Helvetica,sans-Serif" font-size="10.00">+ Healthpack(float x,</text>
<text text-anchor="start" x="765" y="-696" font-family="Helvetica,sans-Serif" font-size="10.00"> float y)</text>
<text text-anchor="start" x="765" y="-685" font-family="Helvetica,sans-Serif" font-size="10.00">+ void update() override</text>
<text text-anchor="start" x="765" y="-674" font-family="Helvetica,sans-Serif" font-size="10.00">+ bool is_used() const</text>
<text text-anchor="start" x="765" y="-663" font-family="Helvetica,sans-Serif" font-size="10.00">+ void use()</text>
<text text-anchor="start" x="765" y="-652" font-family="Helvetica,sans-Serif" font-size="10.00">+ void render(sf::RenderWindow</text>
<text text-anchor="start" x="765" y="-641" font-family="Helvetica,sans-Serif" font-size="10.00"> &amp;window, Camera &amp;camera)</text>
<text text-anchor="start" x="765" y="-630" font-family="Helvetica,sans-Serif" font-size="10.00"> override</text>
</a>
</g>
</g>
<!-- Node1&#45;&gt;Node7 -->
<g id="edge6" class="edge">
<title>Node1&#45;&gt;Node7</title>
<path fill="none" stroke="midnightblue" d="M787.15,-932.05C801.02,-873.75 817.15,-805.98 828.76,-757.18"/>
<polygon fill="none" stroke="midnightblue" points="783.68,-931.54 784.77,-942.07 790.49,-933.16 783.68,-931.54"/>
</g>
<!-- Node8 -->
<g id="node8" class="node">
<title>Node8</title>
<g id="a_node8"><a xlink:href="classLauncher.html" target="_top" xlink:title=" ">
<polygon fill="white" stroke="black" points="950,-617.5 950,-762.5 1087,-762.5 1087,-617.5 950,-617.5"/>
<text text-anchor="middle" x="1018.5" y="-750.5" font-family="Helvetica,sans-Serif" font-size="10.00">Launcher</text>
<polyline fill="none" stroke="black" points="950,-743.5 1087,-743.5 "/>
<text text-anchor="middle" x="1018.5" y="-731.5" font-family="Helvetica,sans-Serif" font-size="10.00"> </text>
<polyline fill="none" stroke="black" points="950,-724.5 1087,-724.5 "/>
<text text-anchor="start" x="958" y="-712.5" font-family="Helvetica,sans-Serif" font-size="10.00">+ Launcher(float x,</text>
<text text-anchor="start" x="958" y="-701.5" font-family="Helvetica,sans-Serif" font-size="10.00"> float y)</text>
<text text-anchor="start" x="958" y="-690.5" font-family="Helvetica,sans-Serif" font-size="10.00">+ void update() override</text>
<text text-anchor="start" x="958" y="-679.5" font-family="Helvetica,sans-Serif" font-size="10.00">+ sf::FloatRect get_rect</text>
<text text-anchor="start" x="958" y="-668.5" font-family="Helvetica,sans-Serif" font-size="10.00">() const override</text>
<text text-anchor="start" x="958" y="-657.5" font-family="Helvetica,sans-Serif" font-size="10.00">+ void launch()</text>
<text text-anchor="start" x="958" y="-646.5" font-family="Helvetica,sans-Serif" font-size="10.00">+ bool is_launched()</text>
<text text-anchor="start" x="958" y="-635.5" font-family="Helvetica,sans-Serif" font-size="10.00"> const</text>
<text text-anchor="start" x="958" y="-624.5" font-family="Helvetica,sans-Serif" font-size="10.00">+ void reset()</text>
</a>
</g>
</g>
<!-- Node1&#45;&gt;Node8 -->
<g id="edge7" class="edge">
<title>Node1&#45;&gt;Node8</title>
<path fill="none" stroke="midnightblue" d="M846.53,-996.91C879.68,-972.39 915.39,-941.14 940.5,-906 971.09,-863.2 990.91,-807.11 1002.91,-762.95"/>
<polygon fill="none" stroke="midnightblue" points="844.2,-994.28 838.17,-1003 848.32,-999.94 844.2,-994.28"/>
</g>
<!-- Node9 -->
<g id="node9" class="node">
<title>Node9</title>
<g id="a_node9"><a xlink:href="classMoving__Object.html" target="_top" xlink:title=" ">
<polygon fill="white" stroke="black" points="1105,-474.5 1105,-905.5 1274,-905.5 1274,-474.5 1105,-474.5"/>
<text text-anchor="middle" x="1189.5" y="-893.5" font-family="Helvetica,sans-Serif" font-size="10.00">Moving_Object</text>
<polyline fill="none" stroke="black" points="1105,-886.5 1274,-886.5 "/>
<text text-anchor="start" x="1113" y="-874.5" font-family="Helvetica,sans-Serif" font-size="10.00"># bool jumping</text>
<text text-anchor="start" x="1113" y="-863.5" font-family="Helvetica,sans-Serif" font-size="10.00"># sf::Vector2f velocity</text>
<text text-anchor="start" x="1113" y="-852.5" font-family="Helvetica,sans-Serif" font-size="10.00"># sf::Vector2f starting</text>
<text text-anchor="start" x="1113" y="-841.5" font-family="Helvetica,sans-Serif" font-size="10.00">_position</text>
<text text-anchor="start" x="1113" y="-830.5" font-family="Helvetica,sans-Serif" font-size="10.00"># bool alive</text>
<text text-anchor="start" x="1113" y="-819.5" font-family="Helvetica,sans-Serif" font-size="10.00"># sf::Clock animation</text>
<text text-anchor="start" x="1113" y="-808.5" font-family="Helvetica,sans-Serif" font-size="10.00">_timer</text>
<text text-anchor="start" x="1113" y="-797.5" font-family="Helvetica,sans-Serif" font-size="10.00"># int animation_frame</text>
<text text-anchor="start" x="1113" y="-786.5" font-family="Helvetica,sans-Serif" font-size="10.00"># Animation_State current</text>
<text text-anchor="start" x="1113" y="-775.5" font-family="Helvetica,sans-Serif" font-size="10.00">_animation_state</text>
<text text-anchor="start" x="1113" y="-764.5" font-family="Helvetica,sans-Serif" font-size="10.00"># int animation_frame_rate</text>
<polyline fill="none" stroke="black" points="1105,-757.5 1274,-757.5 "/>
<text text-anchor="start" x="1113" y="-745.5" font-family="Helvetica,sans-Serif" font-size="10.00">+ Moving_Object(float</text>
<text text-anchor="start" x="1113" y="-734.5" font-family="Helvetica,sans-Serif" font-size="10.00"> x, float y, int w, int h)</text>
<text text-anchor="start" x="1113" y="-723.5" font-family="Helvetica,sans-Serif" font-size="10.00">+ virtual void update</text>
<text text-anchor="start" x="1113" y="-712.5" font-family="Helvetica,sans-Serif" font-size="10.00">(float friction, float</text>
<text text-anchor="start" x="1113" y="-701.5" font-family="Helvetica,sans-Serif" font-size="10.00"> gravity)=0</text>
<text text-anchor="start" x="1113" y="-690.5" font-family="Helvetica,sans-Serif" font-size="10.00">+ sf::Vector2f get_velocity</text>
<text text-anchor="start" x="1113" y="-679.5" font-family="Helvetica,sans-Serif" font-size="10.00">() const</text>
<text text-anchor="start" x="1113" y="-668.5" font-family="Helvetica,sans-Serif" font-size="10.00">+ sf::FloatRect get_rect</text>
<text text-anchor="start" x="1113" y="-657.5" font-family="Helvetica,sans-Serif" font-size="10.00">() const override</text>
<text text-anchor="start" x="1113" y="-646.5" font-family="Helvetica,sans-Serif" font-size="10.00">+ sf::Vector2f get_starting</text>
<text text-anchor="start" x="1113" y="-635.5" font-family="Helvetica,sans-Serif" font-size="10.00">_position() const</text>
<text text-anchor="start" x="1113" y="-624.5" font-family="Helvetica,sans-Serif" font-size="10.00">+ virtual void stop_vertical()</text>
<text text-anchor="start" x="1113" y="-613.5" font-family="Helvetica,sans-Serif" font-size="10.00">+ virtual void stop_horizontal()</text>
<text text-anchor="start" x="1113" y="-602.5" font-family="Helvetica,sans-Serif" font-size="10.00">+ void update_position()</text>
<text text-anchor="start" x="1113" y="-591.5" font-family="Helvetica,sans-Serif" font-size="10.00">+ virtual void reset()</text>
<text text-anchor="start" x="1113" y="-580.5" font-family="Helvetica,sans-Serif" font-size="10.00">+ bool is_alive() const</text>
<text text-anchor="start" x="1113" y="-569.5" font-family="Helvetica,sans-Serif" font-size="10.00">+ void kill()</text>
<text text-anchor="start" x="1113" y="-558.5" font-family="Helvetica,sans-Serif" font-size="10.00">+ void push(float force)</text>
<text text-anchor="start" x="1113" y="-547.5" font-family="Helvetica,sans-Serif" font-size="10.00">+ void blow(float force)</text>
<text text-anchor="start" x="1113" y="-536.5" font-family="Helvetica,sans-Serif" font-size="10.00">+ virtual void change</text>
<text text-anchor="start" x="1113" y="-525.5" font-family="Helvetica,sans-Serif" font-size="10.00">_direction()</text>
<text text-anchor="start" x="1113" y="-514.5" font-family="Helvetica,sans-Serif" font-size="10.00"># virtual void update</text>
<text text-anchor="start" x="1113" y="-503.5" font-family="Helvetica,sans-Serif" font-size="10.00">_animation_state()</text>
<text text-anchor="start" x="1113" y="-492.5" font-family="Helvetica,sans-Serif" font-size="10.00"># virtual void update</text>
<text text-anchor="start" x="1113" y="-481.5" font-family="Helvetica,sans-Serif" font-size="10.00">_texture()</text>
</a>
</g>
</g>
<!-- Node1&#45;&gt;Node9 -->
<g id="edge8" class="edge">
<title>Node1&#45;&gt;Node9</title>
<path fill="none" stroke="midnightblue" d="M848.06,-1033.01C922.69,-1012.65 1027.43,-973.93 1095.5,-906 1098.67,-902.83 1101.74,-899.54 1104.72,-896.15"/>
<polygon fill="none" stroke="midnightblue" points="846.95,-1029.69 838.19,-1035.65 848.76,-1036.45 846.95,-1029.69"/>
</g>
<!-- Node14 -->
<g id="node14" class="node">
<title>Node14</title>
<g id="a_node14"><a xlink:href="classSolid__Block.html" target="_top" xlink:title=" ">
<polygon fill="white" stroke="black" points="1294,-634 1294,-746 1405,-746 1405,-634 1294,-634"/>
<text text-anchor="middle" x="1349.5" y="-734" font-family="Helvetica,sans-Serif" font-size="10.00">Solid_Block</text>
<polyline fill="none" stroke="black" points="1294,-727 1405,-727 "/>
<text text-anchor="middle" x="1349.5" y="-715" font-family="Helvetica,sans-Serif" font-size="10.00"> </text>
<polyline fill="none" stroke="black" points="1294,-708 1405,-708 "/>
<text text-anchor="start" x="1302" y="-696" font-family="Helvetica,sans-Serif" font-size="10.00">+ Solid_Block(float</text>
<text text-anchor="start" x="1302" y="-685" font-family="Helvetica,sans-Serif" font-size="10.00"> x, float y, int level,</text>
<text text-anchor="start" x="1302" y="-674" font-family="Helvetica,sans-Serif" font-size="10.00"> char c)</text>
<text text-anchor="start" x="1302" y="-663" font-family="Helvetica,sans-Serif" font-size="10.00">+ Solid_Block(float</text>
<text text-anchor="start" x="1302" y="-652" font-family="Helvetica,sans-Serif" font-size="10.00"> x, float y, int w,</text>
<text text-anchor="start" x="1302" y="-641" font-family="Helvetica,sans-Serif" font-size="10.00"> int h)</text>
</a>
</g>
</g>
<!-- Node1&#45;&gt;Node14 -->
<g id="edge13" class="edge">
<title>Node1&#45;&gt;Node14</title>
<path fill="none" stroke="midnightblue" d="M848.57,-1052.3C964.33,-1047.1 1164.42,-1020.65 1282.5,-906 1325.7,-864.06 1341.17,-794.77 1346.64,-746.22"/>
<polygon fill="none" stroke="midnightblue" points="848.17,-1048.81 838.32,-1052.71 848.46,-1055.81 848.17,-1048.81"/>
</g>
<!-- Node17 -->
<g id="node17" class="node">
<title>Node17</title>
<g id="a_node17"><a xlink:href="classTreasure.html" target="_top" xlink:title=" ">
<polygon fill="white" stroke="black" points="1423.5,-639.5 1423.5,-740.5 1561.5,-740.5 1561.5,-639.5 1423.5,-639.5"/>
<text text-anchor="middle" x="1492.5" y="-728.5" font-family="Helvetica,sans-Serif" font-size="10.00">Treasure</text>
<polyline fill="none" stroke="black" points="1423.5,-721.5 1561.5,-721.5 "/>
<text text-anchor="middle" x="1492.5" y="-709.5" font-family="Helvetica,sans-Serif" font-size="10.00"> </text>
<polyline fill="none" stroke="black" points="1423.5,-702.5 1561.5,-702.5 "/>
<text text-anchor="start" x="1431.5" y="-690.5" font-family="Helvetica,sans-Serif" font-size="10.00">+ Treasure(float x,</text>
<text text-anchor="start" x="1431.5" y="-679.5" font-family="Helvetica,sans-Serif" font-size="10.00"> float y)</text>
<text text-anchor="start" x="1431.5" y="-668.5" font-family="Helvetica,sans-Serif" font-size="10.00">+ void open()</text>
<text text-anchor="start" x="1431.5" y="-657.5" font-family="Helvetica,sans-Serif" font-size="10.00">+ void close()</text>
<text text-anchor="start" x="1431.5" y="-646.5" font-family="Helvetica,sans-Serif" font-size="10.00">+ bool is_opened() const</text>
</a>
</g>
</g>
<!-- Node1&#45;&gt;Node17 -->
<g id="edge16" class="edge">
<title>Node1&#45;&gt;Node17</title>
<path fill="none" stroke="midnightblue" d="M848.49,-1043.1C1007.89,-1024.77 1330.94,-979.47 1414.5,-906 1462.36,-863.92 1480.87,-790.09 1488.02,-740.87"/>
<polygon fill="none" stroke="midnightblue" points="847.77,-1039.66 838.23,-1044.27 848.57,-1046.62 847.77,-1039.66"/>
</g>
<!-- Node10 -->
<g id="node10" class="node">
<title>Node10</title>
<g id="a_node10"><a xlink:href="classEnemy.html" target="_top" xlink:title=" ">
<polygon fill="white" stroke="black" points="750,-243 750,-410 925,-410 925,-243 750,-243"/>
<text text-anchor="middle" x="837.5" y="-398" font-family="Helvetica,sans-Serif" font-size="10.00">Enemy</text>
<polyline fill="none" stroke="black" points="750,-391 925,-391 "/>
<text text-anchor="start" x="758" y="-379" font-family="Helvetica,sans-Serif" font-size="10.00"># float speed</text>
<polyline fill="none" stroke="black" points="750,-372 925,-372 "/>
<text text-anchor="start" x="758" y="-360" font-family="Helvetica,sans-Serif" font-size="10.00">+ Enemy(float x, float y)</text>
<text text-anchor="start" x="758" y="-349" font-family="Helvetica,sans-Serif" font-size="10.00">+ Enemy(float x, float</text>
<text text-anchor="start" x="758" y="-338" font-family="Helvetica,sans-Serif" font-size="10.00"> y, int w, int h)</text>
<text text-anchor="start" x="758" y="-327" font-family="Helvetica,sans-Serif" font-size="10.00">+ void render(sf::RenderWindow</text>
<text text-anchor="start" x="758" y="-316" font-family="Helvetica,sans-Serif" font-size="10.00"> &amp;window, Camera &amp;camera)</text>
<text text-anchor="start" x="758" y="-305" font-family="Helvetica,sans-Serif" font-size="10.00"> override</text>
<text text-anchor="start" x="758" y="-294" font-family="Helvetica,sans-Serif" font-size="10.00">+ void update(float friction,</text>
<text text-anchor="start" x="758" y="-283" font-family="Helvetica,sans-Serif" font-size="10.00"> float gravity) override</text>
<text text-anchor="start" x="758" y="-272" font-family="Helvetica,sans-Serif" font-size="10.00">+ void spawn()</text>
<text text-anchor="start" x="758" y="-261" font-family="Helvetica,sans-Serif" font-size="10.00"># void update_animation</text>
<text text-anchor="start" x="758" y="-250" font-family="Helvetica,sans-Serif" font-size="10.00">_state() override</text>
</a>
</g>
</g>
<!-- Node9&#45;&gt;Node10 -->
<g id="edge9" class="edge">
<title>Node9&#45;&gt;Node10</title>
<path fill="none" stroke="midnightblue" d="M1096.97,-475.22C1096.48,-474.81 1095.99,-474.4 1095.5,-474 1038.92,-427.37 997.57,-475.39 934.5,-438 921.76,-430.45 909.82,-420.65 898.96,-410"/>
<polygon fill="none" stroke="midnightblue" points="1094.86,-478.04 1104.63,-482.14 1099.55,-472.84 1094.86,-478.04"/>
</g>
<!-- Node12 -->
<g id="node12" class="node">
<title>Node12</title>
<g id="a_node12"><a xlink:href="classMoving__Block.html" target="_top" xlink:title=" ">
<polygon fill="white" stroke="black" points="943.5,-265 943.5,-388 1095.5,-388 1095.5,-265 943.5,-265"/>
<text text-anchor="middle" x="1019.5" y="-376" font-family="Helvetica,sans-Serif" font-size="10.00">Moving_Block</text>
<polyline fill="none" stroke="black" points="943.5,-369 1095.5,-369 "/>
<text text-anchor="middle" x="1019.5" y="-357" font-family="Helvetica,sans-Serif" font-size="10.00"> </text>
<polyline fill="none" stroke="black" points="943.5,-350 1095.5,-350 "/>
<text text-anchor="start" x="951.5" y="-338" font-family="Helvetica,sans-Serif" font-size="10.00">+ Moving_Block(float</text>
<text text-anchor="start" x="951.5" y="-327" font-family="Helvetica,sans-Serif" font-size="10.00"> x, float y)</text>
<text text-anchor="start" x="951.5" y="-316" font-family="Helvetica,sans-Serif" font-size="10.00">+ void update(float friction,</text>
<text text-anchor="start" x="951.5" y="-305" font-family="Helvetica,sans-Serif" font-size="10.00"> float gravity) override</text>
<text text-anchor="start" x="951.5" y="-294" font-family="Helvetica,sans-Serif" font-size="10.00">+ void reset() override</text>
<text text-anchor="start" x="951.5" y="-283" font-family="Helvetica,sans-Serif" font-size="10.00">+ sf::FloatRect get_rect</text>
<text text-anchor="start" x="951.5" y="-272" font-family="Helvetica,sans-Serif" font-size="10.00">() const override</text>
</a>
</g>
</g>
<!-- Node9&#45;&gt;Node12 -->
<g id="edge11" class="edge">
<title>Node9&#45;&gt;Node12</title>
<path fill="none" stroke="midnightblue" d="M1100.63,-484.81C1098.91,-481.18 1097.2,-477.57 1095.5,-474 1081.92,-445.56 1065.98,-414.51 1052.21,-388.34"/>
<polygon fill="none" stroke="midnightblue" points="1097.48,-486.34 1104.89,-493.91 1103.82,-483.37 1097.48,-486.34"/>
</g>
<!-- Node13 -->
<g id="node13" class="node">
<title>Node13</title>
<g id="a_node13"><a xlink:href="classPlayer.html" target="_top" xlink:title=" ">
<polygon fill="white" stroke="black" points="1113.5,-215.5 1113.5,-437.5 1265.5,-437.5 1265.5,-215.5 1113.5,-215.5"/>
<text text-anchor="middle" x="1189.5" y="-425.5" font-family="Helvetica,sans-Serif" font-size="10.00">Player</text>
<polyline fill="none" stroke="black" points="1113.5,-418.5 1265.5,-418.5 "/>
<text text-anchor="middle" x="1189.5" y="-406.5" font-family="Helvetica,sans-Serif" font-size="10.00"> </text>
<polyline fill="none" stroke="black" points="1113.5,-399.5 1265.5,-399.5 "/>
<text text-anchor="start" x="1121.5" y="-387.5" font-family="Helvetica,sans-Serif" font-size="10.00">+ Player(float x, float y)</text>
<text text-anchor="start" x="1121.5" y="-376.5" font-family="Helvetica,sans-Serif" font-size="10.00">+ void update(float friction,</text>
<text text-anchor="start" x="1121.5" y="-365.5" font-family="Helvetica,sans-Serif" font-size="10.00"> float gravity) override</text>
<text text-anchor="start" x="1121.5" y="-354.5" font-family="Helvetica,sans-Serif" font-size="10.00">+ void update_graphics</text>
<text text-anchor="start" x="1121.5" y="-343.5" font-family="Helvetica,sans-Serif" font-size="10.00">(Camera &amp;camera)</text>
<text text-anchor="start" x="1121.5" y="-332.5" font-family="Helvetica,sans-Serif" font-size="10.00">+ int get_lives() const</text>
<text text-anchor="start" x="1121.5" y="-321.5" font-family="Helvetica,sans-Serif" font-size="10.00">+ std::string get_current</text>
<text text-anchor="start" x="1121.5" y="-310.5" font-family="Helvetica,sans-Serif" font-size="10.00">_power_up() const</text>
<text text-anchor="start" x="1121.5" y="-299.5" font-family="Helvetica,sans-Serif" font-size="10.00">+ void activate_random</text>
<text text-anchor="start" x="1121.5" y="-288.5" font-family="Helvetica,sans-Serif" font-size="10.00">_power_up()</text>
<text text-anchor="start" x="1121.5" y="-277.5" font-family="Helvetica,sans-Serif" font-size="10.00">+ void reset() override</text>
<text text-anchor="start" x="1121.5" y="-266.5" font-family="Helvetica,sans-Serif" font-size="10.00">+ void use_healthpack()</text>
<text text-anchor="start" x="1121.5" y="-255.5" font-family="Helvetica,sans-Serif" font-size="10.00">+ bool is_ghost() const</text>
<text text-anchor="start" x="1121.5" y="-244.5" font-family="Helvetica,sans-Serif" font-size="10.00">+ bool has_super_power</text>
<text text-anchor="start" x="1121.5" y="-233.5" font-family="Helvetica,sans-Serif" font-size="10.00">() const</text>
<text text-anchor="start" x="1121.5" y="-222.5" font-family="Helvetica,sans-Serif" font-size="10.00">and 6 more...</text>
</a>
</g>
</g>
<!-- Node9&#45;&gt;Node13 -->
<g id="edge12" class="edge">
<title>Node9&#45;&gt;Node13</title>
<path fill="none" stroke="midnightblue" d="M1189.5,-464.12C1189.5,-455.17 1189.5,-446.38 1189.5,-437.84"/>
<polygon fill="none" stroke="midnightblue" points="1186,-464.28 1189.5,-474.28 1193,-464.28 1186,-464.28"/>
</g>
<!-- Node11 -->
<g id="node11" class="node">
<title>Node11</title>
<g id="a_node11"><a xlink:href="classRolling__Stone.html" target="_top" xlink:title=" ">
<polygon fill="white" stroke="black" points="767.5,-0.5 767.5,-178.5 907.5,-178.5 907.5,-0.5 767.5,-0.5"/>
<text text-anchor="middle" x="837.5" y="-166.5" font-family="Helvetica,sans-Serif" font-size="10.00">Rolling_Stone</text>
<polyline fill="none" stroke="black" points="767.5,-159.5 907.5,-159.5 "/>
<text text-anchor="middle" x="837.5" y="-147.5" font-family="Helvetica,sans-Serif" font-size="10.00"> </text>
<polyline fill="none" stroke="black" points="767.5,-140.5 907.5,-140.5 "/>
<text text-anchor="start" x="775.5" y="-128.5" font-family="Helvetica,sans-Serif" font-size="10.00">+ Rolling_Stone(float</text>
<text text-anchor="start" x="775.5" y="-117.5" font-family="Helvetica,sans-Serif" font-size="10.00"> x, float y)</text>
<text text-anchor="start" x="775.5" y="-106.5" font-family="Helvetica,sans-Serif" font-size="10.00">+ void update_texture</text>
<text text-anchor="start" x="775.5" y="-95.5" font-family="Helvetica,sans-Serif" font-size="10.00">() override</text>
<text text-anchor="start" x="775.5" y="-84.5" font-family="Helvetica,sans-Serif" font-size="10.00">+ sf::FloatRect get_rect</text>
<text text-anchor="start" x="775.5" y="-73.5" font-family="Helvetica,sans-Serif" font-size="10.00">() const override</text>
<text text-anchor="start" x="775.5" y="-62.5" font-family="Helvetica,sans-Serif" font-size="10.00">+ void stop_vertical</text>
<text text-anchor="start" x="775.5" y="-51.5" font-family="Helvetica,sans-Serif" font-size="10.00">() override</text>
<text text-anchor="start" x="775.5" y="-40.5" font-family="Helvetica,sans-Serif" font-size="10.00">+ void change_direction</text>
<text text-anchor="start" x="775.5" y="-29.5" font-family="Helvetica,sans-Serif" font-size="10.00">() override</text>
<text text-anchor="start" x="775.5" y="-18.5" font-family="Helvetica,sans-Serif" font-size="10.00">+ void update_animation</text>
<text text-anchor="start" x="775.5" y="-7.5" font-family="Helvetica,sans-Serif" font-size="10.00">_state() override</text>
</a>
</g>
</g>
<!-- Node10&#45;&gt;Node11 -->
<g id="edge10" class="edge">
<title>Node10&#45;&gt;Node11</title>
<path fill="none" stroke="midnightblue" d="M837.5,-232.64C837.5,-214.91 837.5,-196.4 837.5,-178.81"/>
<polygon fill="none" stroke="midnightblue" points="834,-232.98 837.5,-242.98 841,-232.98 834,-232.98"/>
</g>
<!-- Node15 -->
<g id="node15" class="node">
<title>Node15</title>
<g id="a_node15"><a xlink:href="classBridge.html" target="_top" xlink:title=" ">
<polygon fill="white" stroke="black" points="1283.5,-287 1283.5,-366 1417.5,-366 1417.5,-287 1283.5,-287"/>
<text text-anchor="middle" x="1350.5" y="-354" font-family="Helvetica,sans-Serif" font-size="10.00">Bridge</text>
<polyline fill="none" stroke="black" points="1283.5,-347 1417.5,-347 "/>
<text text-anchor="middle" x="1350.5" y="-335" font-family="Helvetica,sans-Serif" font-size="10.00"> </text>
<polyline fill="none" stroke="black" points="1283.5,-328 1417.5,-328 "/>
<text text-anchor="start" x="1291.5" y="-316" font-family="Helvetica,sans-Serif" font-size="10.00">+ Bridge(float x, float y)</text>
<text text-anchor="start" x="1291.5" y="-305" font-family="Helvetica,sans-Serif" font-size="10.00">+ sf::FloatRect get_rect</text>
<text text-anchor="start" x="1291.5" y="-294" font-family="Helvetica,sans-Serif" font-size="10.00">() const override</text>
</a>
</g>
</g>
<!-- Node14&#45;&gt;Node15 -->
<g id="edge14" class="edge">
<title>Node14&#45;&gt;Node15</title>
<path fill="none" stroke="midnightblue" d="M1349.68,-623.41C1349.89,-548.25 1350.22,-427.55 1350.39,-366.12"/>
<polygon fill="none" stroke="midnightblue" points="1346.18,-623.69 1349.65,-633.7 1353.18,-623.71 1346.18,-623.69"/>
</g>
<!-- Node16 -->
<g id="node16" class="node">
<title>Node16</title>
<g id="a_node16"><a xlink:href="classFan.html" target="_top" xlink:title=" ">
<polygon fill="white" stroke="black" points="1436,-292.5 1436,-360.5 1573,-360.5 1573,-292.5 1436,-292.5"/>
<text text-anchor="middle" x="1504.5" y="-348.5" font-family="Helvetica,sans-Serif" font-size="10.00">Fan</text>
<polyline fill="none" stroke="black" points="1436,-341.5 1573,-341.5 "/>
<text text-anchor="middle" x="1504.5" y="-329.5" font-family="Helvetica,sans-Serif" font-size="10.00"> </text>
<polyline fill="none" stroke="black" points="1436,-322.5 1573,-322.5 "/>
<text text-anchor="start" x="1444" y="-310.5" font-family="Helvetica,sans-Serif" font-size="10.00">+ Fan(float x, float y)</text>
<text text-anchor="start" x="1444" y="-299.5" font-family="Helvetica,sans-Serif" font-size="10.00">+ void update() override</text>
</a>
</g>
</g>
<!-- Node14&#45;&gt;Node16 -->
<g id="edge15" class="edge">
<title>Node14&#45;&gt;Node16</title>
<path fill="none" stroke="midnightblue" d="M1364.54,-623.81C1375.69,-580.35 1392.71,-522.51 1414.5,-474 1432.91,-433.02 1460.78,-389.59 1480.62,-360.76"/>
<polygon fill="none" stroke="midnightblue" points="1361.1,-623.14 1362.04,-633.7 1367.88,-624.86 1361.1,-623.14"/>
</g>
</g>
</svg>
        <g id="navigator" transform="translate(0 0)" fill="#404254">
                <rect fill="#f2f5e9" fill-opacity="0.5" stroke="#606060" stroke-width=".5" x="0" y="0" width="60" height="60"/>
                <use id="zoomplus" xlink:href="#zoomPlus" x="17" y="9" onmousedown="handleZoom(evt,'in')"/>
                <use id="zoomminus" xlink:href="#zoomMin" x="42" y="9" onmousedown="handleZoom(evt,'out')"/>
                <use id="reset" xlink:href="#resetDef" x="30" y="36" onmousedown="handleReset()"/>
                <g id="arrowUp" xlink:href="#dirArrow" transform="translate(30 24)" onmousedown="handlePan(0,-1)">
                  <use xlink:href="#rim" fill="#404040">
                        <set attributeName="fill" to="#808080" begin="arrowUp.mouseover" end="arrowUp.mouseout"/>
                  </use>
                  <path fill="none" stroke="white" stroke-width="1.5" d="M0,-3.0v7 M-2.5,-0.5L0,-3.0L2.5,-0.5"/>
                </g>
                <g id="arrowRight" xlink:href="#dirArrow" transform="rotate(90) translate(36 -43)" onmousedown="handlePan(1,0)">
                  <use xlink:href="#rim" fill="#404040">
                        <set attributeName="fill" to="#808080" begin="arrowRight.mouseover" end="arrowRight.mouseout"/>
                  </use>
                  <path fill="none" stroke="white" stroke-width="1.5" d="M0,-3.0v7 M-2.5,-0.5L0,-3.0L2.5,-0.5"/>
                </g>
                <g id="arrowDown" xlink:href="#dirArrow" transform="rotate(180) translate(-30 -48)" onmousedown="handlePan(0,1)">
                  <use xlink:href="#rim" fill="#404040">
                        <set attributeName="fill" to="#808080" begin="arrowDown.mouseover" end="arrowDown.mouseout"/>
                  </use>
                  <path fill="none" stroke="white" stroke-width="1.5" d="M0,-3.0v7 M-2.5,-0.5L0,-3.0L2.5,-0.5"/>
                </g>
                <g id="arrowLeft" xlink:href="#dirArrow" transform="rotate(270) translate(-36 17)" onmousedown="handlePan(-1,0)">
                  <use xlink:href="#rim" fill="#404040">
                        <set attributeName="fill" to="#808080" begin="arrowLeft.mouseover" end="arrowLeft.mouseout"/>
                  </use>
                  <path fill="none" stroke="white" stroke-width="1.5" d="M0,-3.0v7 M-2.5,-0.5L0,-3.0L2.5,-0.5"/>
                </g>
        </g>
        <svg viewBox="0 0 15 15" width="100%" height="30px" preserveAspectRatio="xMaxYMin meet">
         <g id="arrow_out" transform="scale(0.3 0.3)">
          <a xlink:href="classGame__Object__inherit__graph_org.svg" target="_base">
           <rect id="button" ry="5" rx="5" y="6" x="6" height="38" width="38"
                fill="#f2f5e9" fill-opacity="0.5" stroke="#606060" stroke-width="1.0"/>
           <path id="arrow"
             d="M 11.500037,31.436501 C 11.940474,20.09759 22.043105,11.32322 32.158766,21.979434 L 37.068811,17.246167 C 37.068811,17.246167 37.088388,32 37.088388,32 L 22.160133,31.978069 C 22.160133,31.978069 26.997745,27.140456 26.997745,27.140456 C 18.528582,18.264221 13.291696,25.230495 11.500037,31.436501 z"
             style="fill:#404040;"/>
          </a>
         </g>
        </svg>
</svg>
