<?xml version="1.0" encoding="UTF-8" standalone="no"?>
<!DOCTYPE svg PUBLIC "-//W3C//DTD SVG 1.1//EN"
 "http://www.w3.org/Graphics/SVG/1.1/DTD/svg11.dtd">
<!-- Generated by graphviz version 2.43.0 (0)
 -->
<!-- Title: Menu_State::update Pages: 1 -->
<svg width="434pt" height="88pt"
 viewBox="0.00 0.00 434.00 88.00" xmlns="http://www.w3.org/2000/svg" xmlns:xlink="http://www.w3.org/1999/xlink">
<g id="graph0" class="graph" transform="scale(1 1) rotate(0) translate(4 84)">
<title>Menu_State::update</title>
<polygon fill="white" stroke="transparent" points="-4,4 -4,-84 430,-84 430,4 -4,4"/>
<!-- Node1 -->
<g id="node1" class="node">
<title>Node1</title>
<g id="a_node1"><a xlink:title=" ">
<polygon fill="#bfbfbf" stroke="black" points="0,-30 0,-49 114,-49 114,-30 0,-30"/>
<text text-anchor="middle" x="57" y="-37" font-family="Helvetica,sans-Serif" font-size="10.00">Menu_State::update</text>
</a>
</g>
</g>
<!-- Node2 -->
<g id="node2" class="node">
<title>Node2</title>
<g id="a_node2"><a xlink:href="classMenu__State.html#a058af2de0751e2018b9bff1a3852c421" target="_top" xlink:title=" ">
<polygon fill="white" stroke="black" points="150,-24.5 150,-54.5 269,-54.5 269,-24.5 150,-24.5"/>
<text text-anchor="start" x="158" y="-42.5" font-family="Helvetica,sans-Serif" font-size="10.00">Menu_State::execute</text>
<text text-anchor="middle" x="209.5" y="-31.5" font-family="Helvetica,sans-Serif" font-size="10.00">_command</text>
</a>
</g>
</g>
<!-- Node1&#45;&gt;Node2 -->
<g id="edge1" class="edge">
<title>Node1&#45;&gt;Node2</title>
<path fill="none" stroke="midnightblue" d="M114.04,-39.5C122.45,-39.5 131.2,-39.5 139.84,-39.5"/>
<polygon fill="midnightblue" stroke="midnightblue" points="139.9,-43 149.9,-39.5 139.9,-36 139.9,-43"/>
</g>
<!-- Node3 -->
<g id="node3" class="node">
<title>Node3</title>
<g id="a_node3"><a xlink:href="classAudio__Manager.html#a301659f9a9d0c739eceb809924369df0" target="_top" xlink:title=" ">
<polygon fill="white" stroke="black" points="305,-49.5 305,-79.5 426,-79.5 426,-49.5 305,-49.5"/>
<text text-anchor="start" x="313" y="-67.5" font-family="Helvetica,sans-Serif" font-size="10.00">Audio_Manager::start</text>
<text text-anchor="middle" x="365.5" y="-56.5" font-family="Helvetica,sans-Serif" font-size="10.00">_game_music</text>
</a>
</g>
</g>
<!-- Node2&#45;&gt;Node3 -->
<g id="edge2" class="edge">
<title>Node2&#45;&gt;Node3</title>
<path fill="none" stroke="midnightblue" d="M269.16,-49.02C277.59,-50.39 286.33,-51.81 294.95,-53.21"/>
<polygon fill="midnightblue" stroke="midnightblue" points="294.55,-56.69 304.98,-54.84 295.67,-49.78 294.55,-56.69"/>
</g>
<!-- Node4 -->
<g id="node4" class="node">
<title>Node4</title>
<g id="a_node4"><a xlink:href="classAudio__Manager.html#a22060a3c3c8e0965470096b466fa2184" target="_top" xlink:title=" ">
<polygon fill="white" stroke="black" points="306,-0.5 306,-30.5 425,-30.5 425,-0.5 306,-0.5"/>
<text text-anchor="start" x="314" y="-18.5" font-family="Helvetica,sans-Serif" font-size="10.00">Audio_Manager::stop</text>
<text text-anchor="middle" x="365.5" y="-7.5" font-family="Helvetica,sans-Serif" font-size="10.00">_menu_music</text>
</a>
</g>
</g>
<!-- Node2&#45;&gt;Node4 -->
<g id="edge3" class="edge">
<title>Node2&#45;&gt;Node4</title>
<path fill="none" stroke="midnightblue" d="M269.16,-30.36C277.87,-29 286.91,-27.59 295.8,-26.21"/>
<polygon fill="midnightblue" stroke="midnightblue" points="296.41,-29.65 305.75,-24.66 295.33,-22.74 296.41,-29.65"/>
</g>
</g>
</svg>
