<?xml version="1.0" encoding="UTF-8" standalone="no"?>
<!DOCTYPE svg PUBLIC "-//W3C//DTD SVG 1.1//EN"
 "http://www.w3.org/Graphics/SVG/1.1/DTD/svg11.dtd">
<!-- Generated by graphviz version 2.43.0 (0)
 -->
<!-- Title: Graphical Class Hierarchy Pages: 1 -->
<svg width="470pt" height="123pt"
 viewBox="0.00 0.00 470.00 123.00" xmlns="http://www.w3.org/2000/svg" xmlns:xlink="http://www.w3.org/1999/xlink">
<g id="graph0" class="graph" transform="scale(1 1) rotate(0) translate(4 119)">
<title>Graphical Class Hierarchy</title>
<polygon fill="white" stroke="transparent" points="-4,4 -4,-119 466,-119 466,4 -4,4"/>
<!-- Node0 -->
<g id="node1" class="node">
<title>Node0</title>
<g id="a_node1"><a xlink:href="classState.html" target="_top" xlink:title=" ">
<polygon fill="white" stroke="black" points="0,-38.5 0,-57.5 42,-57.5 42,-38.5 0,-38.5"/>
<text text-anchor="middle" x="21" y="-45.5" font-family="Helvetica,sans-Serif" font-size="10.00">State</text>
</a>
</g>
</g>
<!-- Node1 -->
<g id="node2" class="node">
<title>Node1</title>
<g id="a_node2"><a xlink:href="classMenu__State.html" target="_top" xlink:title=" ">
<polygon fill="white" stroke="black" points="80,-76.5 80,-95.5 154,-95.5 154,-76.5 80,-76.5"/>
<text text-anchor="middle" x="117" y="-83.5" font-family="Helvetica,sans-Serif" font-size="10.00">Menu_State</text>
</a>
</g>
</g>
<!-- Node0&#45;&gt;Node1 -->
<g id="edge1" class="edge">
<title>Node0&#45;&gt;Node1</title>
<path fill="none" stroke="midnightblue" d="M51.91,-60.09C64.97,-65.37 80.06,-71.47 92.33,-76.43"/>
<polygon fill="midnightblue" stroke="midnightblue" points="52.98,-56.75 42.4,-56.25 50.36,-63.24 52.98,-56.75"/>
</g>
<!-- Node5 -->
<g id="node6" class="node">
<title>Node5</title>
<g id="a_node6"><a xlink:href="classPlay__State.html" target="_top" xlink:title=" ">
<polygon fill="white" stroke="black" points="83,-38.5 83,-57.5 151,-57.5 151,-38.5 83,-38.5"/>
<text text-anchor="middle" x="117" y="-45.5" font-family="Helvetica,sans-Serif" font-size="10.00">Play_State</text>
</a>
</g>
</g>
<!-- Node0&#45;&gt;Node5 -->
<g id="edge5" class="edge">
<title>Node0&#45;&gt;Node5</title>
<path fill="none" stroke="midnightblue" d="M52.7,-48C62.3,-48 72.94,-48 82.71,-48"/>
<polygon fill="midnightblue" stroke="midnightblue" points="52.4,-44.5 42.4,-48 52.4,-51.5 52.4,-44.5"/>
</g>
<!-- Node6 -->
<g id="node7" class="node">
<title>Node6</title>
<g id="a_node7"><a xlink:href="classProlog__State.html" target="_top" xlink:title=" ">
<polygon fill="white" stroke="black" points="78,-0.5 78,-19.5 156,-19.5 156,-0.5 78,-0.5"/>
<text text-anchor="middle" x="117" y="-7.5" font-family="Helvetica,sans-Serif" font-size="10.00">Prolog_State</text>
</a>
</g>
</g>
<!-- Node0&#45;&gt;Node6 -->
<g id="edge6" class="edge">
<title>Node0&#45;&gt;Node6</title>
<path fill="none" stroke="midnightblue" d="M51.91,-35.91C64.97,-30.63 80.06,-24.53 92.33,-19.57"/>
<polygon fill="midnightblue" stroke="midnightblue" points="50.36,-32.76 42.4,-39.75 52.98,-39.25 50.36,-32.76"/>
</g>
<!-- Node2 -->
<g id="node3" class="node">
<title>Node2</title>
<g id="a_node3"><a xlink:href="classGame__Over__State.html" target="_top" xlink:title=" ">
<polygon fill="white" stroke="black" points="192,-95.5 192,-114.5 297,-114.5 297,-95.5 192,-95.5"/>
<text text-anchor="middle" x="244.5" y="-102.5" font-family="Helvetica,sans-Serif" font-size="10.00">Game_Over_State</text>
</a>
</g>
</g>
<!-- Node1&#45;&gt;Node2 -->
<g id="edge2" class="edge">
<title>Node1&#45;&gt;Node2</title>
<path fill="none" stroke="midnightblue" d="M164.21,-93C173.22,-94.36 182.71,-95.8 191.88,-97.19"/>
<polygon fill="midnightblue" stroke="midnightblue" points="164.71,-89.53 154.3,-91.5 163.66,-96.45 164.71,-89.53"/>
</g>
<!-- Node4 -->
<g id="node5" class="node">
<title>Node4</title>
<g id="a_node5"><a xlink:href="classPause__State.html" target="_top" xlink:title=" ">
<polygon fill="white" stroke="black" points="206.5,-57.5 206.5,-76.5 282.5,-76.5 282.5,-57.5 206.5,-57.5"/>
<text text-anchor="middle" x="244.5" y="-64.5" font-family="Helvetica,sans-Serif" font-size="10.00">Pause_State</text>
</a>
</g>
</g>
<!-- Node1&#45;&gt;Node4 -->
<g id="edge4" class="edge">
<title>Node1&#45;&gt;Node4</title>
<path fill="none" stroke="midnightblue" d="M164.58,-78.95C178.38,-76.86 193.3,-74.6 206.41,-72.62"/>
<polygon fill="midnightblue" stroke="midnightblue" points="163.66,-75.55 154.3,-80.5 164.71,-82.47 163.66,-75.55"/>
</g>
<!-- Node3 -->
<g id="node4" class="node">
<title>Node3</title>
<g id="a_node4"><a xlink:href="classGame__Complete__State.html" target="_top" xlink:title=" ">
<polygon fill="white" stroke="black" points="333,-95.5 333,-114.5 462,-114.5 462,-95.5 333,-95.5"/>
<text text-anchor="middle" x="397.5" y="-102.5" font-family="Helvetica,sans-Serif" font-size="10.00">Game_Complete_State</text>
</a>
</g>
</g>
<!-- Node2&#45;&gt;Node3 -->
<g id="edge3" class="edge">
<title>Node2&#45;&gt;Node3</title>
<path fill="none" stroke="midnightblue" d="M307.22,-105C315.69,-105 324.4,-105 332.9,-105"/>
<polygon fill="midnightblue" stroke="midnightblue" points="307.04,-101.5 297.04,-105 307.04,-108.5 307.04,-101.5"/>
</g>
</g>
</svg>
