<?xml version="1.0" encoding="UTF-8" standalone="no"?>
<!DOCTYPE svg PUBLIC "-//W3C//DTD SVG 1.1//EN"
 "http://www.w3.org/Graphics/SVG/1.1/DTD/svg11.dtd">
<!-- Generated by graphviz version 2.43.0 (0)
 -->
<!-- Title: Graphical Class Hierarchy Pages: 1 -->
<svg width="456pt" height="370pt"
 viewBox="0.00 0.00 456.00 370.00" xmlns="http://www.w3.org/2000/svg" xmlns:xlink="http://www.w3.org/1999/xlink">
<g id="graph0" class="graph" transform="scale(1 1) rotate(0) translate(4 366)">
<title>Graphical Class Hierarchy</title>
<polygon fill="white" stroke="transparent" points="-4,4 -4,-366 452,-366 452,4 -4,4"/>
<!-- Node0 -->
<g id="node1" class="node">
<title>Node0</title>
<g id="a_node1"><a xlink:href="classGame__Object.html" target="_top" xlink:title=" ">
<polygon fill="white" stroke="black" points="0,-171.5 0,-190.5 83,-190.5 83,-171.5 0,-171.5"/>
<text text-anchor="middle" x="41.5" y="-178.5" font-family="Helvetica,sans-Serif" font-size="10.00">Game_Object</text>
</a>
</g>
</g>
<!-- Node1 -->
<g id="node2" class="node">
<title>Node1</title>
<g id="a_node2"><a xlink:href="classBouncer.html" target="_top" xlink:title=" ">
<polygon fill="white" stroke="black" points="135.5,-342.5 135.5,-361.5 191.5,-361.5 191.5,-342.5 135.5,-342.5"/>
<text text-anchor="middle" x="163.5" y="-349.5" font-family="Helvetica,sans-Serif" font-size="10.00">Bouncer</text>
</a>
</g>
</g>
<!-- Node0&#45;&gt;Node1 -->
<g id="edge1" class="edge">
<title>Node0&#45;&gt;Node1</title>
<path fill="none" stroke="midnightblue" d="M47.57,-200.37C56.78,-232.06 79.09,-295.2 119,-333 123.67,-337.42 129.53,-340.91 135.42,-343.63"/>
<polygon fill="midnightblue" stroke="midnightblue" points="50.9,-199.27 44.85,-190.57 44.15,-201.14 50.9,-199.27"/>
</g>
<!-- Node2 -->
<g id="node3" class="node">
<title>Node2</title>
<g id="a_node3"><a xlink:href="classCheckpoint.html" target="_top" xlink:title=" ">
<polygon fill="white" stroke="black" points="128,-304.5 128,-323.5 199,-323.5 199,-304.5 128,-304.5"/>
<text text-anchor="middle" x="163.5" y="-311.5" font-family="Helvetica,sans-Serif" font-size="10.00">Checkpoint</text>
</a>
</g>
</g>
<!-- Node0&#45;&gt;Node2 -->
<g id="edge2" class="edge">
<title>Node0&#45;&gt;Node2</title>
<path fill="none" stroke="midnightblue" d="M51.01,-199.99C62.99,-224.81 86.98,-268.26 119,-295 123.43,-298.7 128.69,-301.79 133.99,-304.34"/>
<polygon fill="midnightblue" stroke="midnightblue" points="54.03,-198.17 46.63,-190.59 47.69,-201.13 54.03,-198.17"/>
</g>
<!-- Node3 -->
<g id="node4" class="node">
<title>Node3</title>
<g id="a_node4"><a xlink:href="classDoor.html" target="_top" xlink:title=" ">
<polygon fill="white" stroke="black" points="143.5,-266.5 143.5,-285.5 183.5,-285.5 183.5,-266.5 143.5,-266.5"/>
<text text-anchor="middle" x="163.5" y="-273.5" font-family="Helvetica,sans-Serif" font-size="10.00">Door</text>
</a>
</g>
</g>
<!-- Node0&#45;&gt;Node3 -->
<g id="edge3" class="edge">
<title>Node0&#45;&gt;Node3</title>
<path fill="none" stroke="midnightblue" d="M56.69,-198.45C71.01,-215.2 94.48,-240.33 119,-257 126.36,-262 135.25,-266.17 143.07,-269.31"/>
<polygon fill="midnightblue" stroke="midnightblue" points="59.17,-195.97 50.07,-190.55 53.81,-200.46 59.17,-195.97"/>
</g>
<!-- Node4 -->
<g id="node5" class="node">
<title>Node4</title>
<g id="a_node5"><a xlink:href="classFlamer.html" target="_top" xlink:title=" ">
<polygon fill="white" stroke="black" points="138,-228.5 138,-247.5 189,-247.5 189,-228.5 138,-228.5"/>
<text text-anchor="middle" x="163.5" y="-235.5" font-family="Helvetica,sans-Serif" font-size="10.00">Flamer</text>
</a>
</g>
</g>
<!-- Node0&#45;&gt;Node4 -->
<g id="edge4" class="edge">
<title>Node0&#45;&gt;Node4</title>
<path fill="none" stroke="midnightblue" d="M70.17,-195.16C84.64,-202.45 102.68,-211.39 119,-219 125.72,-222.14 133.09,-225.41 139.83,-228.35"/>
<polygon fill="midnightblue" stroke="midnightblue" points="71.74,-192.03 61.24,-190.63 68.58,-198.27 71.74,-192.03"/>
</g>
<!-- Node5 -->
<g id="node6" class="node">
<title>Node5</title>
<g id="a_node6"><a xlink:href="classHarmful__Block.html" target="_top" xlink:title=" ">
<polygon fill="white" stroke="black" points="119,-190.5 119,-209.5 208,-209.5 208,-190.5 119,-190.5"/>
<text text-anchor="middle" x="163.5" y="-197.5" font-family="Helvetica,sans-Serif" font-size="10.00">Harmful_Block</text>
</a>
</g>
</g>
<!-- Node0&#45;&gt;Node5 -->
<g id="edge5" class="edge">
<title>Node0&#45;&gt;Node5</title>
<path fill="none" stroke="midnightblue" d="M93.25,-189.04C101.69,-190.37 110.38,-191.75 118.63,-193.05"/>
<polygon fill="midnightblue" stroke="midnightblue" points="93.55,-185.54 83.13,-187.43 92.46,-192.45 93.55,-185.54"/>
</g>
<!-- Node6 -->
<g id="node7" class="node">
<title>Node6</title>
<g id="a_node7"><a xlink:href="classHealthpack.html" target="_top" xlink:title=" ">
<polygon fill="white" stroke="black" points="127.5,-152.5 127.5,-171.5 199.5,-171.5 199.5,-152.5 127.5,-152.5"/>
<text text-anchor="middle" x="163.5" y="-159.5" font-family="Helvetica,sans-Serif" font-size="10.00">Healthpack</text>
</a>
</g>
</g>
<!-- Node0&#45;&gt;Node6 -->
<g id="edge6" class="edge">
<title>Node0&#45;&gt;Node6</title>
<path fill="none" stroke="midnightblue" d="M93.04,-173C104.51,-171.18 116.45,-169.29 127.13,-167.6"/>
<polygon fill="midnightblue" stroke="midnightblue" points="92.46,-169.55 83.13,-174.57 93.55,-176.46 92.46,-169.55"/>
</g>
<!-- Node7 -->
<g id="node8" class="node">
<title>Node7</title>
<g id="a_node8"><a xlink:href="classLauncher.html" target="_top" xlink:title=" ">
<polygon fill="white" stroke="black" points="133,-114.5 133,-133.5 194,-133.5 194,-114.5 133,-114.5"/>
<text text-anchor="middle" x="163.5" y="-121.5" font-family="Helvetica,sans-Serif" font-size="10.00">Launcher</text>
</a>
</g>
</g>
<!-- Node0&#45;&gt;Node7 -->
<g id="edge7" class="edge">
<title>Node0&#45;&gt;Node7</title>
<path fill="none" stroke="midnightblue" d="M70.17,-166.84C84.64,-159.55 102.68,-150.61 119,-143 125.72,-139.86 133.09,-136.59 139.83,-133.65"/>
<polygon fill="midnightblue" stroke="midnightblue" points="68.58,-163.73 61.24,-171.37 71.74,-169.97 68.58,-163.73"/>
</g>
<!-- Node8 -->
<g id="node9" class="node">
<title>Node8</title>
<g id="a_node9"><a xlink:href="classMoving__Object.html" target="_top" xlink:title=" ">
<polygon fill="white" stroke="black" points="119,-76.5 119,-95.5 208,-95.5 208,-76.5 119,-76.5"/>
<text text-anchor="middle" x="163.5" y="-83.5" font-family="Helvetica,sans-Serif" font-size="10.00">Moving_Object</text>
</a>
</g>
</g>
<!-- Node0&#45;&gt;Node8 -->
<g id="edge8" class="edge">
<title>Node0&#45;&gt;Node8</title>
<path fill="none" stroke="midnightblue" d="M56.69,-163.55C71.01,-146.8 94.48,-121.67 119,-105 124.32,-101.39 130.43,-98.21 136.36,-95.54"/>
<polygon fill="midnightblue" stroke="midnightblue" points="53.81,-161.54 50.07,-171.45 59.17,-166.03 53.81,-161.54"/>
</g>
<!-- Node13 -->
<g id="node14" class="node">
<title>Node13</title>
<g id="a_node14"><a xlink:href="classSolid__Block.html" target="_top" xlink:title=" ">
<polygon fill="white" stroke="black" points="127,-38.5 127,-57.5 200,-57.5 200,-38.5 127,-38.5"/>
<text text-anchor="middle" x="163.5" y="-45.5" font-family="Helvetica,sans-Serif" font-size="10.00">Solid_Block</text>
</a>
</g>
</g>
<!-- Node0&#45;&gt;Node13 -->
<g id="edge13" class="edge">
<title>Node0&#45;&gt;Node13</title>
<path fill="none" stroke="midnightblue" d="M51.01,-162.01C62.99,-137.19 86.98,-93.74 119,-67 123.43,-63.3 128.69,-60.21 133.99,-57.66"/>
<polygon fill="midnightblue" stroke="midnightblue" points="47.69,-160.87 46.63,-171.41 54.03,-163.83 47.69,-160.87"/>
</g>
<!-- Node16 -->
<g id="node17" class="node">
<title>Node16</title>
<g id="a_node17"><a xlink:href="classTreasure.html" target="_top" xlink:title=" ">
<polygon fill="white" stroke="black" points="134.5,-0.5 134.5,-19.5 192.5,-19.5 192.5,-0.5 134.5,-0.5"/>
<text text-anchor="middle" x="163.5" y="-7.5" font-family="Helvetica,sans-Serif" font-size="10.00">Treasure</text>
</a>
</g>
</g>
<!-- Node0&#45;&gt;Node16 -->
<g id="edge16" class="edge">
<title>Node0&#45;&gt;Node16</title>
<path fill="none" stroke="midnightblue" d="M47.57,-161.63C56.78,-129.94 79.09,-66.8 119,-29 123.31,-24.92 128.63,-21.63 134.06,-19.01"/>
<polygon fill="midnightblue" stroke="midnightblue" points="44.15,-160.86 44.85,-171.43 50.9,-162.73 44.15,-160.86"/>
</g>
<!-- Node9 -->
<g id="node10" class="node">
<title>Node9</title>
<g id="a_node10"><a xlink:href="classEnemy.html" target="_top" xlink:title=" ">
<polygon fill="white" stroke="black" points="261.5,-152.5 261.5,-171.5 311.5,-171.5 311.5,-152.5 261.5,-152.5"/>
<text text-anchor="middle" x="286.5" y="-159.5" font-family="Helvetica,sans-Serif" font-size="10.00">Enemy</text>
</a>
</g>
</g>
<!-- Node8&#45;&gt;Node9 -->
<g id="edge9" class="edge">
<title>Node8&#45;&gt;Node9</title>
<path fill="none" stroke="midnightblue" d="M200.37,-100.25C203.02,-101.73 205.6,-103.31 208,-105 227.04,-118.37 225.08,-129.47 244,-143 249.29,-146.78 255.44,-150.09 261.37,-152.84"/>
<polygon fill="midnightblue" stroke="midnightblue" points="201.68,-96.99 191.17,-95.63 198.54,-103.25 201.68,-96.99"/>
</g>
<!-- Node11 -->
<g id="node12" class="node">
<title>Node11</title>
<g id="a_node12"><a xlink:href="classMoving__Block.html" target="_top" xlink:title=" ">
<polygon fill="white" stroke="black" points="244,-114.5 244,-133.5 329,-133.5 329,-114.5 244,-114.5"/>
<text text-anchor="middle" x="286.5" y="-121.5" font-family="Helvetica,sans-Serif" font-size="10.00">Moving_Block</text>
</a>
</g>
</g>
<!-- Node8&#45;&gt;Node11 -->
<g id="edge11" class="edge">
<title>Node8&#45;&gt;Node11</title>
<path fill="none" stroke="midnightblue" d="M204.88,-98.68C221.23,-103.81 239.79,-109.64 254.98,-114.41"/>
<polygon fill="midnightblue" stroke="midnightblue" points="205.62,-95.25 195.03,-95.59 203.53,-101.92 205.62,-95.25"/>
</g>
<!-- Node12 -->
<g id="node13" class="node">
<title>Node12</title>
<g id="a_node13"><a xlink:href="classPlayer.html" target="_top" xlink:title=" ">
<polygon fill="white" stroke="black" points="263,-76.5 263,-95.5 310,-95.5 310,-76.5 263,-76.5"/>
<text text-anchor="middle" x="286.5" y="-83.5" font-family="Helvetica,sans-Serif" font-size="10.00">Player</text>
</a>
</g>
</g>
<!-- Node8&#45;&gt;Node12 -->
<g id="edge12" class="edge">
<title>Node8&#45;&gt;Node12</title>
<path fill="none" stroke="midnightblue" d="M218.36,-86C234.04,-86 250.33,-86 262.94,-86"/>
<polygon fill="midnightblue" stroke="midnightblue" points="218.18,-82.5 208.18,-86 218.18,-89.5 218.18,-82.5"/>
</g>
<!-- Node10 -->
<g id="node11" class="node">
<title>Node10</title>
<g id="a_node11"><a xlink:href="classRolling__Stone.html" target="_top" xlink:title=" ">
<polygon fill="white" stroke="black" points="365,-152.5 365,-171.5 448,-171.5 448,-152.5 365,-152.5"/>
<text text-anchor="middle" x="406.5" y="-159.5" font-family="Helvetica,sans-Serif" font-size="10.00">Rolling_Stone</text>
</a>
</g>
</g>
<!-- Node9&#45;&gt;Node10 -->
<g id="edge10" class="edge">
<title>Node9&#45;&gt;Node10</title>
<path fill="none" stroke="midnightblue" d="M321.88,-162C335.26,-162 350.7,-162 364.64,-162"/>
<polygon fill="midnightblue" stroke="midnightblue" points="321.66,-158.5 311.66,-162 321.66,-165.5 321.66,-158.5"/>
</g>
<!-- Node14 -->
<g id="node15" class="node">
<title>Node14</title>
<g id="a_node15"><a xlink:href="classBridge.html" target="_top" xlink:title=" ">
<polygon fill="white" stroke="black" points="262.5,-38.5 262.5,-57.5 310.5,-57.5 310.5,-38.5 262.5,-38.5"/>
<text text-anchor="middle" x="286.5" y="-45.5" font-family="Helvetica,sans-Serif" font-size="10.00">Bridge</text>
</a>
</g>
</g>
<!-- Node13&#45;&gt;Node14 -->
<g id="edge14" class="edge">
<title>Node13&#45;&gt;Node14</title>
<path fill="none" stroke="midnightblue" d="M210.34,-48C228.08,-48 247.61,-48 262.31,-48"/>
<polygon fill="midnightblue" stroke="midnightblue" points="210.15,-44.5 200.15,-48 210.15,-51.5 210.15,-44.5"/>
</g>
<!-- Node15 -->
<g id="node16" class="node">
<title>Node15</title>
<g id="a_node16"><a xlink:href="classFan.html" target="_top" xlink:title=" ">
<polygon fill="white" stroke="black" points="270,-0.5 270,-19.5 303,-19.5 303,-0.5 270,-0.5"/>
<text text-anchor="middle" x="286.5" y="-7.5" font-family="Helvetica,sans-Serif" font-size="10.00">Fan</text>
</a>
</g>
</g>
<!-- Node13&#45;&gt;Node15 -->
<g id="edge15" class="edge">
<title>Node13&#45;&gt;Node15</title>
<path fill="none" stroke="midnightblue" d="M204.61,-35.4C226.89,-28.41 253.35,-20.1 269.79,-14.93"/>
<polygon fill="midnightblue" stroke="midnightblue" points="203.53,-32.08 195.03,-38.41 205.62,-38.75 203.53,-32.08"/>
</g>
</g>
</svg>
